<?xml version="1.0" standalone="no"?>
<!DOCTYPE svg PUBLIC "-//W3C//DTD SVG 20010904//EN"
 "http://www.w3.org/TR/2001/REC-SVG-20010904/DTD/svg10.dtd">
<svg version="1.0" xmlns="http://www.w3.org/2000/svg"
 width="1280.000000pt" height="1280.000000pt" viewBox="0 0 1280.000000 1280.000000"
 preserveAspectRatio="xMidYMid meet">

<g transform="translate(0.000000,1280.000000) scale(0.100000,-0.100000)"
fill="#000000" stroke="none">
<path d="M4134 11199 c-3 -6 -93 -274 -198 -596 l-193 -587 -109 -94 c-133
-115 -317 -295 -431 -422 -47 -52 -98 -103 -113 -113 -16 -10 -325 -115 -687
-233 -362 -118 -661 -218 -664 -222 -3 -4 92 -306 213 -672 171 -521 217 -674
215 -705 -2 -22 -20 -119 -40 -215 -129 -622 -129 -1254 0 -1880 19 -96 37
-186 40 -200 2 -15 -84 -293 -220 -705 -123 -374 -223 -681 -221 -683 1 -2
310 -104 686 -228 l683 -224 55 -62 c105 -121 316 -332 454 -453 l139 -122
191 -586 c106 -322 195 -589 198 -592 3 -4 273 81 600 188 l594 194 149 -33
c599 -135 1208 -137 1819 -7 l169 36 586 -193 c322 -106 593 -195 601 -197 12
-3 57 124 210 592 l195 597 130 113 c130 114 364 345 465 463 l55 63 675 220
c371 121 678 223 681 227 3 4 -92 306 -213 672 -171 521 -217 674 -215 705 2
22 20 119 40 215 129 622 129 1254 0 1880 -19 96 -37 186 -40 200 -2 15 84
293 220 705 123 374 223 681 221 683 -1 2 -310 104 -686 228 l-683 224 -55 62
c-105 121 -316 332 -454 453 l-139 122 -191 586 c-106 322 -195 589 -198 592
-3 4 -273 -81 -600 -188 l-594 -194 -149 33 c-599 135 -1208 137 -1819 7
l-169 -36 -556 183 c-683 225 -639 211 -647 199z m504 -350 c358 -118 384
-129 357 -139 -366 -138 -708 -311 -975 -494 -41 -28 -80 -54 -86 -59 -7 -4 0
30 16 80 16 49 77 234 136 413 58 179 108 328 111 333 6 10 14 8 441 -134z
m4113 -279 c75 -228 134 -417 133 -419 -2 -2 -43 23 -91 56 -267 183 -651 380
-926 478 -42 15 -77 31 -77 34 0 9 790 270 810 268 10 -2 57 -133 151 -417z
m-2071 160 c175 -13 383 -41 373 -50 -11 -11 -623 -210 -645 -210 -21 0 -661
210 -656 215 6 7 231 35 343 44 155 12 437 12 585 1z m-940 -243 c184 -62 334
-116 333 -122 -2 -16 -2305 -767 -2316 -756 -11 11 33 163 58 199 31 44 288
228 485 347 208 126 501 265 725 345 162 57 309 99 345 99 19 -1 186 -51 370
-112z m1935 45 c365 -121 685 -278 1008 -494 120 -80 299 -216 312 -237 12
-19 76 -203 72 -207 -6 -7 -2331 764 -2335 774 -2 7 129 55 330 121 285 95
340 110 383 107 28 -2 131 -31 230 -64z m92 -711 c751 -248 1369 -453 1373
-458 4 -4 189 -561 410 -1238 221 -676 438 -1340 482 -1476 l81 -245 -488
-1485 c-268 -816 -491 -1488 -495 -1492 -4 -5 -619 -208 -1367 -453 l-1360
-445 -1368 450 c-752 247 -1371 453 -1375 458 -4 4 -189 562 -410 1238 -221
677 -438 1340 -482 1476 l-81 245 482 1470 c266 808 490 1480 500 1494 15 21
213 89 1367 466 742 244 1352 443 1357 443 4 1 622 -201 1374 -448z m1522
-275 c19 -20 33 -36 30 -36 -7 0 -103 32 -107 35 -2 2 -10 24 -17 50 l-14 46
37 -30 c20 -16 53 -45 71 -65z m-5679 69 c0 -3 -6 -21 -14 -39 -9 -23 -24 -37
-46 -45 -40 -14 -40 -14 -40 1 0 13 76 88 90 88 6 0 10 -2 10 -5z m5935 -378
c33 -12 55 -34 128 -128 347 -452 625 -1013 762 -1539 l27 -106 -143 -434
-143 -434 -13 39 c-91 276 -873 2671 -873 2676 0 6 142 -35 255 -74z m-6045
57 c0 -23 -873 -2674 -880 -2674 -3 0 -68 190 -144 422 l-138 422 27 105 c134
514 408 1075 739 1509 115 151 118 153 261 203 94 32 135 36 135 13z m-703
-320 c-215 -330 -384 -674 -508 -1034 -29 -83 -54 -149 -56 -146 -8 7 -331
1001 -328 1005 11 11 971 318 973 312 2 -5 -35 -67 -81 -137z m7614 -24 c266
-87 483 -163 483 -167 -1 -4 -75 -232 -165 -506 l-163 -497 -56 162 c-128 371
-301 720 -514 1043 -46 69 -80 125 -76 125 4 0 225 -72 491 -160z m-7988
-2133 c70 -215 128 -400 127 -411 0 -10 -60 -199 -132 -420 l-133 -401 -11 65
c-80 438 -83 975 -8 1455 9 58 19 105 23 105 3 0 64 -177 134 -393z m8131 147
c52 -405 45 -850 -20 -1269 -9 -58 -19 -105 -23 -105 -8 0 -262 780 -261 804
0 10 60 199 132 420 l133 401 11 -65 c7 -36 19 -119 28 -186z m-7484 -2122
c243 -744 441 -1354 439 -1356 -2 -2 -69 17 -148 43 l-145 46 -88 115 c-349
454 -626 1014 -763 1540 l-27 106 142 432 c79 238 144 432 145 430 1 -2 202
-612 445 -1356z m7254 917 l138 -421 -18 -72 c-25 -104 -109 -364 -161 -495
-161 -409 -379 -789 -646 -1126 l-63 -80 -137 -44 c-76 -24 -140 -42 -143 -39
-6 7 877 2698 886 2698 3 0 68 -190 144 -421z m-7925 -1188 c106 -251 254
-527 405 -756 46 -69 80 -125 76 -125 -22 0 -975 320 -974 327 1 4 75 232 165
506 l163 497 56 -162 c31 -90 80 -219 109 -287z m8315 -4 c80 -243 154 -470
164 -504 l20 -63 -490 -161 c-269 -88 -492 -159 -494 -157 -2 3 34 62 81 131
213 323 391 684 516 1047 28 83 53 150 55 150 1 0 68 -199 148 -443z m-7178
-1293 c27 -9 50 -18 52 -19 2 -2 10 -24 17 -50 l14 -46 -37 30 c-40 32 -109
101 -101 101 3 0 28 -7 55 -16z m5753 -20 c-18 -20 -50 -49 -71 -65 l-36 -29
16 50 c14 44 20 51 56 64 65 23 73 19 35 -20z m-4367 -435 c642 -211 1164
-387 1160 -391 -4 -3 -160 -56 -347 -118 -290 -95 -347 -111 -386 -106 -66 7
-379 113 -549 185 -234 100 -463 226 -683 373 -108 72 -279 200 -305 228 -9
10 -30 59 -46 107 -16 48 -31 94 -34 102 -3 9 0 12 9 9 8 -3 539 -178 1181
-389z m4103 275 l-35 -109 -122 -91 c-422 -313 -821 -516 -1310 -664 l-127
-38 -368 120 c-202 67 -361 123 -353 126 52 20 2345 769 2348 768 1 -2 -14
-52 -33 -112z m-5016 -503 c265 -181 649 -379 924 -476 42 -15 77 -31 77 -34
0 -12 -812 -273 -820 -264 -11 11 -279 833 -272 833 3 0 44 -26 91 -59z m4841
-28 c-16 -49 -77 -234 -136 -413 -58 -179 -110 -329 -114 -333 -4 -5 -191 52
-416 126 -350 117 -404 137 -383 146 13 5 83 33 155 61 253 98 616 290 839
444 44 31 81 56 82 56 1 0 -11 -39 -27 -87z m-2110 -342 l325 -107 -130 -17
c-364 -49 -702 -49 -1068 -1 -71 9 -125 20 -120 24 13 13 616 208 643 209 14
0 171 -48 350 -108z"/>
<path d="M5890 9517 c0 -40 -3 -76 -6 -79 -3 -3 -24 5 -47 17 -78 43 -150 57
-266 53 -101 -3 -112 -6 -185 -42 -104 -51 -181 -128 -232 -232 l-39 -78 0
-130 c0 -131 0 -131 38 -210 48 -102 127 -180 233 -233 74 -36 84 -38 189 -41
97 -4 119 -1 185 21 41 14 77 23 79 21 2 -2 -2 -38 -8 -81 -27 -169 -93 -308
-172 -360 -38 -25 -51 -28 -128 -28 -77 0 -91 3 -136 29 -68 40 -134 104 -170
165 -16 28 -35 51 -42 51 -6 0 -27 -9 -46 -20 -42 -25 -42 -30 19 -157 55
-116 145 -210 248 -263 63 -31 78 -35 170 -38 84 -3 110 0 156 17 193 74 322
295 395 673 26 138 55 375 47 383 -3 3 -18 5 -32 5 -15 0 -42 3 -59 6 -28 6
-31 10 -31 45 l0 39 64 0 c70 0 76 6 76 76 0 31 -1 31 -62 40 l-63 9 -3 43 -3
42 69 -6 69 -7 6 33 c4 18 7 45 7 61 0 29 -1 29 -60 29 l-60 0 0 40 0 40 65 0
65 0 2 35 c0 19 1 41 2 47 1 9 -38 18 -124 30 -69 9 -144 20 -167 23 l-43 6 0
-74z m-137 -260 c20 -15 48 -52 64 -84 25 -52 28 -69 28 -153 -1 -81 -4 -103
-27 -152 -31 -67 -100 -146 -145 -164 -48 -21 -132 -18 -170 6 -43 26 -87 88
-103 144 -20 72 -9 199 23 266 59 123 130 173 233 168 48 -3 69 -10 97 -31z"/>
<path d="M5554 9111 c-48 -29 -64 -59 -64 -119 0 -50 3 -58 39 -93 34 -35 44
-39 87 -39 112 0 177 103 126 199 -35 65 -125 90 -188 52z"/>
<path d="M6685 9529 c-22 -17 -39 -35 -37 -40 1 -5 15 -30 31 -56 l30 -47 -57
-61 c-31 -33 -66 -79 -76 -103 -10 -23 -23 -42 -28 -42 -5 0 -32 10 -59 21
-29 13 -53 18 -58 13 -5 -5 -13 -28 -19 -52 l-10 -42 57 -17 56 -17 0 -131 0
-132 -58 -12 c-43 -9 -57 -16 -53 -26 2 -7 8 -30 12 -50 7 -40 2 -40 97 -11
l47 15 21 -40 c11 -23 38 -61 60 -84 l41 -44 -42 -61 c-22 -33 -38 -65 -35
-70 4 -6 24 -19 46 -30 l39 -20 36 55 c20 30 40 55 43 55 3 0 31 -10 61 -22
39 -15 87 -23 165 -27 l110 -6 7 -48 c4 -27 9 -51 12 -54 6 -6 78 6 94 16 11
7 11 19 -2 67 -8 32 -14 59 -13 60 1 1 22 12 46 24 57 28 146 112 178 167 15
26 30 40 36 36 7 -3 24 -15 39 -25 14 -10 29 -18 32 -18 8 0 56 77 56 90 0 5
-23 21 -51 35 -39 21 -49 30 -44 43 4 9 9 62 11 117 4 111 -4 100 90 124 l41
11 -13 56 c-7 31 -14 57 -16 59 -2 2 -28 -7 -58 -20 -30 -14 -59 -24 -65 -25
-5 0 -23 26 -40 58 -16 31 -55 83 -86 114 l-56 57 23 38 c33 53 30 66 -20 90
l-43 21 -22 -39 c-12 -21 -26 -41 -31 -44 -5 -3 -33 1 -62 10 -72 21 -211 20
-286 -4 l-60 -18 -33 58 c-19 32 -36 59 -39 59 -3 0 -23 -14 -45 -31z m358
-243 c46 -20 92 -72 124 -141 25 -55 28 -70 27 -175 0 -127 -14 -182 -66 -258
-39 -57 -91 -82 -169 -82 -137 0 -223 106 -236 292 -12 168 51 320 152 364 40
17 127 18 168 0z"/>
<path d="M6133 7624 c0 -15 -7 -30 -14 -35 -10 -6 -7 -8 9 -6 17 1 22 7 22 29
0 15 -4 29 -9 32 -5 3 -8 -6 -8 -20z"/>
<path d="M6168 7615 c-2 -20 0 -34 6 -32 10 3 15 67 5 67 -4 0 -9 -16 -11 -35z"/>
<path d="M6470 7633 c-14 -7 -35 -12 -47 -10 -12 2 -20 0 -17 -4 3 -5 -2 -9
-10 -9 -9 0 -16 5 -16 10 0 6 -8 2 -18 -7 -22 -21 -20 -28 11 -45 19 -10 20
-9 10 4 -11 12 -5 16 38 26 28 7 69 12 92 12 45 0 90 19 52 21 -11 1 -28 0
-39 -1 -10 -1 -22 2 -25 7 -3 5 -17 3 -31 -4z"/>
<path d="M7052 7575 c0 -16 2 -22 5 -12 2 9 2 23 0 30 -3 6 -5 -1 -5 -18z"/>
<path d="M6220 7580 l-25 -8 25 -1 c14 0 32 4 40 9 13 9 13 10 0 9 -8 -1 -26
-5 -40 -9z"/>
<path d="M6824 7571 c-18 -11 -40 -33 -50 -49 -16 -29 -18 -30 -41 -15 -15 10
-23 11 -23 4 0 -6 11 -17 25 -23 23 -10 29 -8 65 27 21 21 37 42 35 45 -3 4 3
7 12 6 9 0 18 5 20 12 6 17 -7 15 -43 -7z"/>
<path d="M5930 7575 c0 -3 12 -10 28 -16 25 -10 26 -12 7 -19 -19 -8 -19 -9 2
-9 12 -1 30 -12 41 -25 21 -27 47 -21 36 8 -5 14 -9 15 -15 4 -7 -10 -9 -10
-9 2 0 8 -9 21 -21 28 -26 17 -69 33 -69 27z"/>
<path d="M6890 7562 c0 -8 75 -56 103 -65 11 -4 16 -3 12 3 -3 6 -13 10 -22
10 -11 0 -14 6 -10 21 4 15 2 18 -7 10 -8 -7 -22 -4 -44 9 -18 11 -32 16 -32
12z"/>
<path d="M7070 7530 c0 -13 5 -20 13 -17 6 2 12 10 12 17 0 7 -6 15 -12 18 -8
2 -13 -5 -13 -18z"/>
<path d="M6081 7513 c14 -24 43 -30 54 -13 3 6 -1 7 -10 4 -9 -4 -25 2 -37 12
-21 19 -21 19 -7 -3z"/>
<path d="M5901 7501 c-9 -6 -10 -11 -2 -15 6 -4 11 -1 11 6 1 8 6 6 15 -6 8
-11 15 -15 15 -9 0 17 -25 33 -39 24z"/>
<path d="M6630 7506 c0 -2 8 -10 18 -17 15 -13 16 -12 3 4 -13 16 -21 21 -21
13z"/>
<path d="M6347 7488 c2 -5 8 -6 13 -3 5 3 15 -2 24 -11 17 -16 36 -11 36 9 0
8 -15 12 -39 12 -22 0 -37 -3 -34 -7z"/>
<path d="M6680 7481 c0 -12 5 -21 10 -21 6 0 10 6 10 14 0 8 -4 18 -10 21 -5
3 -10 -3 -10 -14z"/>
<path d="M5580 7470 c-9 -6 -10 -10 -3 -10 6 0 15 5 18 10 8 12 4 12 -15 0z"/>
<path d="M5720 7473 c0 -5 9 -32 20 -60 14 -39 17 -53 7 -54 -6 0 -1 -5 12
-10 13 -5 26 -7 29 -4 3 3 0 5 -6 5 -6 0 -14 23 -18 50 -4 28 -10 50 -15 50
-5 0 -9 7 -9 15 0 8 -4 15 -10 15 -5 0 -10 -3 -10 -7z"/>
<path d="M6909 7443 l-24 -28 28 24 c15 14 27 26 27 28 0 8 -8 1 -31 -24z"/>
<path d="M7046 7452 c-5 -9 63 -6 72 3 3 3 -11 5 -31 5 -20 0 -38 -4 -41 -8z"/>
<path d="M5650 7434 c0 -8 5 -12 10 -9 6 3 10 10 10 16 0 5 -4 9 -10 9 -5 0
-10 -7 -10 -16z"/>
<path d="M6701 7445 c19 -44 35 -65 48 -65 14 1 14 2 -1 14 -10 7 -15 15 -13
18 3 3 -5 13 -16 24 -12 10 -20 15 -18 9z"/>
<path d="M5545 7414 c-16 -14 -21 -21 -10 -16 30 16 61 41 50 41 -5 0 -23 -11
-40 -25z"/>
<path d="M6320 7415 c0 -8 2 -15 4 -15 2 0 6 7 10 15 3 8 1 15 -4 15 -6 0 -10
-7 -10 -15z"/>
<path d="M6557 7413 c-4 -3 -7 -11 -7 -17 0 -6 5 -5 12 2 6 6 9 14 7 17 -3 3
-9 2 -12 -2z"/>
<path d="M6834 7412 c4 -7 -8 -12 -31 -15 -33 -4 -32 -4 7 -3 41 1 58 15 29
25 -6 2 -9 -1 -5 -7z"/>
<path d="M5605 7400 c3 -5 8 -10 11 -10 2 0 4 5 4 10 0 6 -5 10 -11 10 -5 0
-7 -4 -4 -10z"/>
<path d="M5875 7400 c-13 -6 -15 -9 -5 -9 8 0 22 4 30 9 18 12 2 12 -25 0z"/>
<path d="M6098 7403 c7 -3 16 -2 19 1 4 3 -2 6 -13 5 -11 0 -14 -3 -6 -6z"/>
<path d="M7122 7385 c0 -16 2 -22 5 -12 2 9 2 23 0 30 -3 6 -5 -1 -5 -18z"/>
<path d="M6457 7377 c13 -17 20 -37 17 -52 -2 -14 0 -25 6 -25 9 0 12 10 14
55 1 8 -2 14 -5 13 -4 -2 -17 6 -30 17 l-23 20 21 -28z"/>
<path d="M7011 7387 c0 -11 8 -30 19 -44 11 -14 20 -21 20 -16 0 6 -6 16 -14
23 -8 6 -17 21 -19 33 -3 17 -5 18 -6 4z"/>
<path d="M7197 7389 c7 -7 15 -10 18 -7 3 3 -2 9 -12 12 -14 6 -15 5 -6 -5z"/>
<path d="M6212 7370 c-8 -13 -8 -20 -2 -20 6 0 13 7 17 15 9 24 -1 27 -15 5z"/>
<path d="M6244 7347 l-29 -32 30 25 c17 14 32 26 34 28 2 1 2 4 -1 7 -2 3 -18
-10 -34 -28z"/>
<path d="M6515 7370 c-3 -5 -1 -10 4 -10 6 0 11 5 11 10 0 6 -2 10 -4 10 -3 0
-8 -4 -11 -10z"/>
<path d="M6540 7360 c0 -5 5 -10 11 -10 5 0 7 5 4 10 -3 6 -8 10 -11 10 -2 0
-4 -4 -4 -10z"/>
<path d="M6670 7369 c0 -3 20 -27 45 -52 25 -26 45 -44 45 -39 0 4 -20 28 -45
52 -25 24 -45 42 -45 39z"/>
<path d="M6715 7360 c-3 -6 1 -7 9 -4 18 7 21 14 7 14 -6 0 -13 -4 -16 -10z"/>
<path d="M6955 7360 c-3 -5 -1 -10 4 -10 6 0 11 5 11 10 0 6 -2 10 -4 10 -3 0
-8 -4 -11 -10z"/>
<path d="M6100 7345 c-7 -8 -16 -12 -21 -9 -5 3 -6 -1 -4 -9 3 -7 -3 -22 -15
-32 -11 -10 -20 -25 -20 -32 0 -8 18 8 41 37 22 28 39 54 36 56 -2 2 -10 -2
-17 -11z"/>
<path d="M6166 7347 c3 -10 9 -15 12 -12 3 3 0 11 -7 18 -10 9 -11 8 -5 -6z"/>
<path d="M6605 7351 c-3 -5 -1 -12 5 -16 5 -3 10 1 10 9 0 18 -6 21 -15 7z"/>
<path d="M5521 7334 c13 -16 29 -19 29 -5 0 5 -9 11 -21 14 -16 4 -18 3 -8 -9z"/>
<path d="M5898 7339 c-7 -4 -10 -10 -8 -12 8 -6 100 4 100 12 0 9 -77 9 -92 0z"/>
<path d="M7293 7335 c0 -8 4 -15 8 -15 4 0 9 7 13 15 3 9 0 15 -8 15 -7 0 -13
-7 -13 -15z"/>
<path d="M7345 7340 c-19 -8 -19 -9 2 -9 12 -1 25 4 28 9 7 12 -2 12 -30 0z"/>
<path d="M6518 7301 c-29 -62 -31 -71 -16 -71 14 0 34 21 57 61 l14 24 -27
-24 c-28 -26 -33 -22 -15 10 6 11 9 24 7 28 -2 5 -11 -8 -20 -28z"/>
<path d="M5461 7309 c-13 -5 -22 -12 -19 -15 3 -3 21 2 39 10 37 16 19 21 -20
5z"/>
<path d="M6277 7313 c-19 -19 13 -130 43 -148 9 -6 9 -3 1 14 -9 16 -9 21 1
21 10 0 10 3 -1 9 -8 5 -11 16 -8 25 4 9 2 16 -3 16 -6 0 -10 -8 -11 -17 0
-13 -3 -11 -10 7 -6 14 -9 37 -6 53 4 29 4 30 -6 20z"/>
<path d="M6430 7310 c20 -13 33 -13 25 0 -3 6 -14 10 -23 10 -15 0 -15 -2 -2
-10z"/>
<path d="M6597 7306 c-4 -10 -7 -20 -7 -22 0 -9 55 1 62 11 13 17 9 28 -5 16
-8 -6 -17 -8 -20 -4 -4 3 -7 0 -8 -8 0 -8 -3 -6 -8 5 -7 18 -8 18 -14 2z"/>
<path d="M6370 7286 c0 -25 36 -44 43 -23 2 7 12 -7 22 -30 10 -23 23 -41 28
-40 12 3 45 -43 49 -68 2 -14 -2 -19 -13 -17 -11 1 -22 -9 -30 -30 -7 -18 -15
-37 -17 -42 -3 -5 0 -6 5 -3 9 6 59 -51 51 -58 -8 -8 -57 8 -51 17 3 6 0 9 -7
6 -7 -2 -18 -19 -24 -38 -8 -24 -18 -36 -33 -38 -13 -2 -23 2 -23 8 0 6 -4 9
-9 6 -4 -3 -19 6 -31 19 -13 14 -19 25 -15 25 5 0 -5 14 -23 30 -18 17 -38 30
-43 30 -5 0 -9 8 -7 18 2 9 -3 16 -10 14 -18 -3 -26 26 -12 43 8 9 21 13 31
10 11 -4 19 -2 19 4 0 6 -6 10 -12 9 -7 -2 -12 3 -10 11 2 9 -3 11 -13 7 -9
-3 -20 -6 -24 -6 -4 0 -7 -10 -8 -21 -1 -12 -4 -23 -7 -26 -10 -10 -26 9 -26
30 l0 21 -16 -22 c-8 -12 -12 -27 -9 -32 3 -6 -4 -14 -17 -19 l-23 -9 28 -11
c17 -7 36 -7 51 -1 18 6 28 5 36 -6 10 -11 9 -14 -6 -14 -15 0 -13 -4 9 -18
15 -9 25 -22 23 -29 -3 -6 0 -14 7 -17 9 -3 8 -8 -3 -15 -13 -9 -13 -11 1 -11
9 0 19 7 23 15 8 22 36 6 36 -21 0 -13 -5 -24 -11 -24 -5 0 -8 4 -5 8 2 4 0
14 -5 22 -6 10 -7 3 -3 -22 6 -41 -12 -52 -36 -23 -11 13 -15 13 -21 3 -7 -10
-9 -10 -9 0 0 20 -58 15 -63 -5 -4 -14 -5 -12 -6 5 0 12 -7 22 -15 22 -19 0
-27 25 -13 39 9 10 -3 11 -55 8 -38 -3 -68 -1 -68 3 0 5 5 10 11 12 6 2 12 18
13 36 1 22 -1 29 -8 22 -5 -5 -16 -10 -24 -10 -12 0 -12 3 -2 15 10 13 11 18
1 28 -10 9 -12 9 -9 -2 3 -15 -77 -63 -88 -52 -4 3 -3 -1 1 -9 7 -13 6 -13 -7
-2 -13 10 -17 10 -22 -3 -8 -23 -45 -33 -84 -24 -19 4 -42 4 -51 -1 -9 -5 -24
-11 -33 -14 -25 -7 -23 -48 2 -64 20 -12 20 -13 -9 -37 -16 -14 -36 -25 -45
-25 -9 0 -16 -7 -16 -16 0 -11 5 -14 16 -10 9 3 24 6 34 6 11 0 22 10 26 22
l7 23 8 -23 c9 -23 3 -52 -11 -52 -11 0 -7 -24 6 -41 13 -18 10 -62 -4 -67 -6
-2 -8 -10 -5 -19 4 -11 3 -14 -6 -9 -6 4 -11 13 -10 19 4 34 -3 42 -36 44 -19
2 -35 -2 -35 -7 0 -6 11 -10 25 -10 20 0 25 -5 25 -25 0 -15 -6 -25 -15 -25
-8 0 -12 -6 -9 -14 3 -8 12 -12 19 -10 8 3 16 -4 20 -16 9 -29 -16 -56 -42
-45 -16 6 -16 8 6 16 23 9 23 10 5 30 -14 16 -26 19 -52 14 -23 -4 -32 -3 -27
4 3 6 3 11 -2 11 -18 0 -28 -16 -30 -46 -2 -26 2 -33 20 -37 19 -5 20 -4 6 6
-13 10 -14 14 -3 25 7 6 20 9 28 6 19 -7 21 -21 4 -27 -10 -3 -10 -9 -1 -23 6
-11 16 -18 21 -17 5 1 13 -14 17 -35 4 -20 11 -39 16 -43 5 -3 3 -14 -5 -24
-11 -16 -17 -17 -29 -7 -20 17 -31 0 -23 -34 5 -18 2 -24 -9 -24 -11 0 -15 -6
-10 -19 9 -29 -21 -34 -34 -5 -6 14 -7 24 -1 24 5 0 7 7 4 15 -4 8 -12 15 -20
15 -11 0 -10 -10 6 -51 23 -63 29 -69 41 -46 11 19 30 23 26 5 -1 -7 3 -13 8
-13 23 -3 45 -18 45 -30 0 -14 -28 -29 -49 -26 -7 1 -10 -2 -6 -9 4 -6 13 -9
20 -6 8 3 19 -2 26 -10 10 -12 8 -17 -7 -29 -16 -13 -17 -14 -1 -9 13 5 17 1
17 -18 0 -22 4 -24 31 -20 22 3 30 1 25 -7 -4 -6 0 -18 8 -27 15 -14 17 -13
22 15 7 35 19 46 56 53 19 4 25 1 21 -9 -3 -8 2 -13 12 -13 12 0 15 -5 9 -22
-4 -13 -14 -28 -22 -34 -13 -9 -12 -12 7 -17 21 -5 30 -27 11 -27 -5 0 -7 -7
-4 -15 4 -8 10 -12 15 -9 5 3 6 -2 3 -10 -10 -25 -21 -19 -28 17 -5 22 -9 28
-15 19 -12 -20 -77 -17 -97 3 -13 12 -27 16 -53 12 l-36 -6 24 19 c18 16 20
20 7 20 -10 0 -14 5 -11 10 3 6 1 10 -5 10 -6 0 -8 5 -5 10 11 17 -5 11 -41
-16 -33 -25 -34 -28 -18 -45 15 -17 15 -19 2 -19 -9 0 -18 -9 -21 -19 -3 -14
2 -20 19 -24 13 -2 24 0 24 6 0 5 12 7 28 3 15 -4 32 -7 39 -8 7 -1 10 -5 7
-10 -3 -4 2 -11 10 -14 9 -3 16 -10 16 -16 0 -5 -4 -6 -10 -3 -6 4 -10 -8 -10
-29 0 -25 7 -40 23 -52 19 -14 19 -15 2 -9 -19 8 -74 9 -81 3 -1 -2 -5 -22 -7
-45 -5 -41 -5 -42 19 -33 13 5 24 7 24 4 0 -4 7 -1 15 6 13 10 19 10 33 -2 9
-8 26 -18 37 -22 18 -7 18 -9 4 -19 -11 -9 -14 -20 -8 -40 6 -24 4 -29 -16
-37 -25 -9 -48 -36 -24 -28 8 3 26 -3 41 -14 16 -11 29 -15 33 -8 3 5 -1 10
-10 10 -20 0 -15 22 6 28 8 3 11 1 7 -3 -4 -5 -3 -14 3 -21 6 -8 18 -50 25
-95 8 -45 18 -87 22 -93 3 -6 8 -29 9 -50 2 -22 10 -47 18 -56 17 -19 19 -30
6 -30 -5 0 -13 9 -16 21 -5 16 -12 19 -30 15 -18 -5 -25 -1 -30 14 -3 11 -11
19 -18 17 -6 -1 -13 9 -15 22 -2 15 0 21 7 17 6 -4 11 -3 11 3 0 5 -5 13 -10
16 -6 3 -7 18 -4 33 4 21 3 24 -5 12 -9 -12 -13 -9 -23 18 -7 17 -18 32 -25
32 -7 0 -13 5 -13 10 0 6 -4 10 -10 10 -18 0 -11 -22 9 -27 23 -6 55 -70 38
-77 -9 -3 -9 -5 1 -5 6 -1 12 -8 12 -17 0 -8 -3 -13 -7 -11 -12 8 -7 -83 5
-95 6 -6 16 -7 28 0 14 7 24 5 39 -11 11 -11 15 -17 9 -14 -7 4 -17 0 -24 -8
-7 -8 -19 -15 -26 -15 -8 0 -14 -9 -14 -20 0 -11 -4 -20 -9 -20 -5 0 -7 -10
-4 -21 6 -20 7 -21 18 -5 7 9 11 26 8 36 -5 17 0 20 35 20 38 0 41 -2 39 -26
-1 -17 4 -29 13 -31 12 -4 13 -3 1 5 -9 6 -11 17 -6 28 7 18 8 18 15 -1 5 -11
9 -15 9 -8 1 7 8 10 16 6 10 -3 15 0 13 8 -3 15 13 16 58 5 19 -5 25 -3 22 6
-3 7 -9 14 -14 14 -32 5 -55 19 -52 32 4 22 26 27 24 5 0 -10 7 -19 19 -21 12
-2 16 0 9 5 -6 4 -13 16 -17 26 -5 13 -13 16 -27 12 -19 -6 -48 17 -51 40 -1
6 -10 35 -21 65 -40 118 -39 151 6 142 11 -3 16 0 11 7 -3 6 -10 9 -15 6 -5
-3 -11 -1 -15 5 -4 6 -11 7 -17 4 -6 -4 -6 0 1 13 6 11 7 23 4 27 -3 3 -1 6 5
6 5 0 12 -5 14 -11 2 -5 11 -7 21 -4 9 4 15 11 12 15 -3 5 0 12 7 16 7 4 10 3
5 -1 -4 -5 7 -23 24 -41 23 -23 30 -39 26 -54 -4 -16 -2 -20 9 -16 8 3 14 0
14 -7 0 -7 14 -21 30 -30 28 -17 42 -47 21 -47 -4 0 -7 -10 -6 -22 3 -32 3
-32 19 -19 11 9 15 7 19 -10 3 -12 12 -19 19 -17 14 5 16 23 3 52 -5 12 -3 21
6 26 10 7 7 11 -14 19 -15 6 -27 13 -27 16 0 20 52 102 64 102 9 0 16 -4 16
-9 0 -4 5 -8 11 -8 5 0 8 4 5 9 -3 5 5 8 19 7 16 0 23 -6 20 -13 -2 -7 6 -20
19 -28 15 -10 26 -29 30 -55 10 -65 34 -44 27 24 -1 11 8 27 18 38 24 21 28
22 45 6 12 -11 12 -15 1 -28 -12 -13 -10 -18 17 -33 25 -14 29 -15 25 -2 -4 9
2 19 14 25 11 6 17 16 14 23 -4 7 0 4 8 -5 8 -10 25 -18 38 -18 18 0 20 -3 11
-12 -10 -10 -17 -10 -31 -1 -18 12 -31 8 -31 -9 0 -4 9 -8 19 -8 10 0 21 -6
24 -14 7 -17 -45 -39 -68 -29 -9 3 -22 0 -30 -7 -8 -6 -20 -8 -26 -4 -7 4 -9
3 -5 -4 3 -6 -3 -13 -14 -17 -22 -7 -26 -20 -8 -31 6 -4 8 -3 5 3 -4 6 3 11
16 11 12 0 43 9 70 21 l47 20 1 -27 c1 -15 1 -34 0 -42 -2 -13 0 -13 8 -1 5 8
7 20 4 28 -3 8 2 13 12 13 11 0 15 -5 12 -14 -3 -8 3 -22 14 -32 20 -18 20
-18 13 10 -5 22 -4 28 7 24 8 -3 16 -13 18 -23 3 -18 24 -45 35 -45 3 0 6 7 6
15 0 10 10 15 28 15 l27 -1 -27 -14 c-31 -17 -45 -52 -28 -69 8 -8 9 -6 4 8
-10 27 15 37 44 18 19 -12 27 -13 30 -4 6 18 22 15 23 -5 0 -10 3 -13 5 -6 3
6 -2 28 -10 48 -18 43 -20 65 -6 65 6 0 10 -7 10 -15 0 -9 11 -20 25 -25 14
-5 24 -13 23 -17 -2 -5 1 -10 7 -13 5 -3 12 9 15 25 4 24 10 29 28 27 15 -2
22 2 22 12 0 9 -4 16 -10 16 -5 0 -10 7 -10 16 0 8 4 13 9 9 6 -3 15 3 20 13
14 27 49 34 61 14 5 -10 10 -12 10 -5 0 6 -4 14 -9 18 -6 3 -9 14 -8 25 1 10
5 17 9 14 12 -7 39 42 33 59 -9 21 13 31 32 15 9 -7 26 -12 37 -10 20 3 20 2
-3 -18 -13 -11 -19 -20 -14 -20 19 0 42 35 33 49 -4 8 -6 20 -3 28 3 7 0 13
-6 13 -20 0 0 25 32 40 31 14 31 14 8 20 -23 5 -23 6 -7 23 10 9 14 17 10 17
-3 0 -1 6 5 14 9 11 9 16 0 22 -7 4 -18 -1 -26 -11 -12 -18 -13 -18 -13 2 0
14 8 23 23 26 22 4 22 4 -2 6 -16 1 -21 5 -17 16 3 8 1 15 -5 15 -12 0 0 52
15 62 7 5 7 8 1 9 -5 0 -1 4 10 8 17 7 16 9 -12 15 -18 4 -35 12 -38 17 -10
15 -25 10 -25 -8 -1 -16 -3 -16 -18 3 -10 11 -23 19 -29 17 -18 -6 -25 15 -13
38 l12 21 19 -21 c11 -12 25 -21 31 -21 6 0 3 9 -7 20 -24 26 -28 80 -6 81 12
0 11 3 -4 9 l-20 9 20 1 c11 1 14 4 8 7 -15 6 -17 33 -3 33 6 0 10 -5 10 -11
0 -5 5 -7 10 -4 8 5 7 11 -1 21 -16 20 -3 30 50 38 36 6 42 4 38 -9 -4 -8 -2
-15 3 -15 5 0 11 -8 13 -17 4 -17 5 -17 6 0 1 13 11 17 49 19 l47 1 -42 4
c-24 2 -43 8 -43 12 0 12 -40 23 -77 21 -18 -1 -33 2 -33 7 1 14 48 43 74 45
27 2 33 12 16 23 -16 10 -1 25 26 25 27 0 32 -15 9 -24 -8 -3 -12 -12 -9 -21
6 -14 8 -14 24 0 9 8 23 15 31 15 12 0 12 2 0 9 -12 8 -12 12 -2 24 7 9 8 18
2 21 -5 3 -11 1 -13 -5 -2 -6 -14 -8 -30 -4 -19 5 -30 18 -42 49 -9 23 -16 44
-16 48 0 11 44 17 55 8 7 -6 11 2 12 28 1 45 -12 73 -31 66 -11 -4 -12 -13 -6
-35 7 -22 6 -29 -3 -26 -7 2 -12 21 -12 43 0 28 -5 41 -18 46 -14 6 -16 12 -8
27 6 10 17 21 26 25 19 7 20 26 0 26 -8 0 -15 8 -15 19 0 10 -7 24 -15 31 -8
7 -15 19 -15 26 0 8 -4 14 -9 14 -6 0 -8 -9 -6 -20 4 -19 3 -19 -22 -3 l-25
17 6 -35 c5 -25 4 -30 -3 -19 -9 13 -11 12 -11 -3 0 -10 -5 -15 -10 -12 -6 4
-8 11 -5 16 4 5 1 9 -4 9 -6 0 -11 7 -11 16 0 9 5 12 13 8 8 -5 8 -2 -2 9 -7
9 -10 18 -5 19 5 0 14 2 19 3 6 2 22 3 36 4 15 0 29 7 32 15 5 11 0 13 -25 6
-27 -8 -30 -7 -25 10 6 23 -18 28 -26 6 -9 -24 -89 -13 -99 13 -9 26 -35 27
-43 2 -3 -11 -12 -22 -20 -24 -10 -4 -12 2 -10 24 2 16 7 34 10 39 3 6 -6 10
-20 10 -15 0 -24 -4 -20 -10 3 -5 0 -7 -9 -4 -8 3 -17 12 -20 21 -4 10 -14 13
-29 10 -12 -3 -30 0 -40 7 -15 12 -8 14 50 13 37 0 70 -3 73 -6 3 -3 16 -15
30 -26 l25 -20 -24 28 -24 27 27 0 c22 0 30 -8 45 -40 16 -35 20 -38 31 -25
14 16 40 20 40 6 0 -5 8 -7 19 -4 10 3 22 0 25 -6 4 -6 15 -11 25 -11 9 0 32
-16 51 -35 24 -25 37 -32 44 -24 8 7 6 13 -6 20 -10 6 -18 18 -18 29 0 10 -6
21 -12 23 -8 3 -5 6 5 6 10 1 15 6 12 11 -3 6 -1 10 5 10 6 0 8 5 5 10 -4 6
-10 8 -15 5 -5 -3 -10 3 -13 12 -3 14 -6 11 -11 -9 -10 -34 -17 -35 -35 -7
-11 19 -11 21 3 16 10 -4 16 -1 16 8 0 8 -7 15 -15 15 -8 0 -15 5 -15 11 0 6
9 8 23 4 17 -5 19 -4 7 4 -8 6 -10 11 -4 11 6 0 23 -9 36 -20 l26 -20 -3 33
c-2 17 -3 36 -4 40 -1 5 -10 5 -21 2 -15 -5 -20 -2 -20 12 -1 17 -1 17 -11 0
-8 -14 -14 -16 -25 -6 -8 6 -14 18 -14 26 0 11 -7 13 -24 9 -14 -3 -27 -2 -30
3 -3 5 -15 7 -27 4 -12 -3 -25 0 -29 7 -4 7 -14 10 -21 8 -9 -3 -3 -10 16 -21
l30 -16 -30 -1 c-28 -1 -29 -2 -7 -10 46 -19 17 -68 -45 -74 -44 -5 -44 -5
-99 86 -6 10 -14 22 -18 25 -10 11 13 -49 25 -63 6 -8 4 -14 -7 -18 -10 -4
-14 -12 -10 -22 5 -14 4 -15 -8 -5 -9 7 -18 21 -21 32 -4 11 -11 16 -17 13 -8
-5 -9 -1 -5 10 4 9 3 15 -2 12 -4 -3 -21 8 -37 25 -28 29 -39 78 -20 91 16 10
36 -11 36 -38 0 -25 15 -33 23 -11 5 16 -39 114 -71 157 -14 19 -26 43 -27 54
0 11 -11 26 -23 32 -13 6 -29 17 -35 23 -19 19 -37 12 -37 -13z m-386 -329 c3
-13 0 -17 -9 -13 -11 4 -12 0 -4 -21 10 -28 3 -67 -11 -58 -5 3 -7 12 -3 20 4
11 1 13 -11 9 -9 -3 -16 -2 -16 4 0 6 6 13 13 15 6 3 2 6 -9 6 -12 1 -25 8
-28 17 -5 13 -1 15 19 12 38 -8 30 6 -12 21 -32 12 -35 15 -20 26 14 10 24 9
51 -4 19 -9 37 -24 40 -34z m914 -5 c18 -11 20 -17 11 -29 -7 -7 -19 -13 -28
-11 -9 1 -22 -1 -29 -6 -9 -5 -18 -3 -26 5 -6 8 -7 11 -2 7 17 -13 22 -9 22
17 0 14 -4 25 -8 25 -4 0 -8 5 -8 11 0 12 35 3 68 -19z m-408 8 c0 -5 -4 -10
-10 -10 -5 0 -10 5 -10 10 0 6 5 10 10 10 6 0 10 -4 10 -10z m-604 -36 c-3 -8
-10 -12 -16 -9 -7 4 -6 14 2 28 12 24 24 8 14 -19z m192 10 c12 -4 22 -11 22
-16 0 -6 -11 -7 -25 -4 -18 5 -30 1 -42 -14 -18 -21 -43 -27 -43 -11 0 6 9 16
21 24 15 11 17 16 7 20 -18 8 32 8 60 1z m439 0 c-3 -3 -12 -4 -19 -1 -8 3 -5
6 6 6 11 1 17 -2 13 -5z m63 -9 c0 -19 -17 -35 -35 -35 -21 0 -22 2 -12 24 7
15 17 21 29 18 10 -2 18 -6 18 -7z m-670 -19 c0 -8 7 -17 16 -20 13 -5 14 -9
5 -20 -9 -10 -8 -15 4 -20 8 -3 15 -17 15 -31 0 -14 5 -25 10 -25 6 0 10 7 10
15 0 11 5 12 26 5 32 -12 34 -12 34 0 0 5 -11 12 -25 16 -32 8 -33 23 -1 17
13 -3 27 0 30 6 9 14 26 14 26 1 0 -5 -7 -10 -16 -10 -13 0 -14 -3 -5 -13 6
-8 8 -16 6 -19 -3 -3 6 -3 20 -1 15 3 25 1 25 -6 0 -6 -8 -12 -17 -12 -17 -1
-17 -2 0 -6 9 -2 17 -9 17 -15 0 -6 -11 -3 -25 6 -28 19 -47 14 -38 -9 4 -11
1 -13 -12 -9 -10 4 -15 14 -12 25 3 12 0 19 -10 19 -8 0 -11 -4 -8 -10 3 -5
-2 -10 -11 -10 -10 0 -26 -7 -36 -17 -10 -9 -18 -11 -18 -5 0 6 7 15 16 20 11
6 13 12 6 16 -6 4 -9 13 -5 21 7 19 -4 19 -23 1 -8 -8 -13 -25 -12 -37 2 -15
-3 -24 -14 -27 -17 -3 -19 13 -5 35 4 6 3 14 -3 18 -16 10 -12 25 7 25 14 0
15 2 1 18 -19 21 -35 67 -20 58 6 -3 13 -2 17 4 9 15 25 12 25 -4z m170 -16
c0 -5 -7 -10 -16 -10 -8 0 -12 5 -9 10 3 6 10 10 16 10 5 0 9 -4 9 -10z m490
-53 c13 -16 15 -26 8 -34 -15 -19 -39 -16 -31 3 4 10 -4 25 -23 41 l-29 24 29
-6 c16 -3 37 -16 46 -28z m290 7 c0 -2 -9 -4 -20 -4 -11 0 -20 4 -20 9 0 5 9
7 20 4 11 -3 20 -7 20 -9z m-420 -6 c0 -7 -4 -19 -9 -27 -7 -10 -9 -7 -8 12 2
26 17 39 17 15z m-630 -4 c0 -10 -50 -54 -61 -54 -6 0 -6 7 1 20 6 11 17 20
25 20 8 0 15 5 15 10 0 6 5 10 10 10 6 0 10 -3 10 -6z m285 -4 c3 -5 -1 -10
-9 -10 -9 0 -16 5 -16 10 0 6 4 10 9 10 6 0 13 -4 16 -10z m215 -1 c0 -5 -4
-7 -10 -4 -5 3 -10 1 -10 -5 0 -6 -5 -8 -11 -4 -8 4 -7 9 2 15 19 12 29 11 29
-2z m210 -30 c0 -5 -7 -6 -15 -3 -8 4 -15 13 -15 21 0 13 3 13 15 3 8 -7 15
-16 15 -21z m120 -14 c0 -8 -9 -15 -20 -15 -20 0 -26 11 -13 23 12 13 33 7 33
-8z m190 -59 c0 -3 -4 -8 -10 -11 -5 -3 -10 -1 -10 4 0 6 5 11 10 11 6 0 10
-2 10 -4z m-900 -30 c0 -2 -7 -7 -16 -10 -8 -3 -12 -2 -9 4 6 10 25 14 25 6z
m130 -6 c0 -5 -5 -10 -11 -10 -5 0 -7 5 -4 10 3 6 8 10 11 10 2 0 4 -4 4 -10z
m-118 -86 c-6 -32 -28 -31 -34 1 -3 14 -1 25 3 25 5 0 9 8 9 17 0 15 1 15 13
-1 8 -10 12 -29 9 -42z m1018 26 c0 -11 -4 -20 -9 -20 -5 0 -7 9 -4 20 3 11 7
20 9 20 2 0 4 -9 4 -20z m-1070 -6 c0 -8 -5 -12 -10 -9 -6 4 -8 11 -5 16 9 14
15 11 15 -7z m983 -14 c3 -11 3 -20 1 -20 -2 0 -8 9 -14 20 -6 11 -7 20 -2 20
6 0 12 -9 15 -20z m-903 0 c0 -5 -4 -10 -10 -10 -5 0 -10 5 -10 10 0 6 5 10
10 10 6 0 10 -4 10 -10z m-276 -55 c-6 -16 -24 -21 -24 -7 0 11 11 22 21 22 5
0 6 -7 3 -15z m1251 -16 c11 -17 0 -20 -21 -4 -17 13 -17 14 -2 15 9 0 20 -5
23 -11z m-1100 -129 c3 -5 1 -10 -4 -10 -6 0 -11 5 -11 10 0 6 2 10 4 10 3 0
8 -4 11 -10z m-92 -27 c-3 -10 -10 -24 -16 -30 -7 -10 -3 -13 13 -13 15 0 20
5 17 14 -8 21 3 27 19 11 8 -7 16 -29 18 -49 5 -32 2 -37 -29 -52 -33 -15 -36
-15 -60 4 -23 18 -23 21 -8 33 10 8 14 9 10 2 -4 -6 -3 -14 3 -18 5 -3 10 1
10 9 0 9 5 16 12 16 6 0 3 10 -8 23 -11 12 -26 31 -34 41 -14 18 -13 19 3 13
9 -3 17 -2 17 3 0 6 9 10 20 10 14 0 18 -5 13 -17z m77 3 c0 -2 -7 -6 -15 -10
-8 -3 -15 -1 -15 4 0 6 7 10 15 10 8 0 15 -2 15 -4z m955 -26 c3 -5 2 -10 -4
-10 -5 0 -13 5 -16 10 -3 6 -2 10 4 10 5 0 13 -4 16 -10z m205 -24 c0 -3 -4
-8 -10 -11 -5 -3 -10 -1 -10 4 0 6 5 11 10 11 6 0 10 -2 10 -4z m-125 -16 c3
-5 -1 -10 -10 -10 -9 0 -13 5 -10 10 3 6 8 10 10 10 2 0 7 -4 10 -10z m-1176
-69 c9 -6 10 -11 3 -15 -6 -4 -9 -13 -5 -21 3 -10 -1 -15 -12 -15 -9 0 -13 5
-10 10 3 6 -1 13 -10 16 -12 5 -13 9 -4 20 13 16 19 17 38 5z m124 3 c3 -4 -1
-13 -9 -21 -18 -18 -27 -13 -18 11 6 17 16 20 27 10z m119 -58 c6 -28 -21 -50
-38 -32 -24 26 -4 87 21 66 7 -6 15 -21 17 -34z m-174 3 c9 -1 23 -1 31 0 7 2
10 -3 6 -9 -4 -6 -15 -8 -24 -5 -18 5 -38 -10 -40 -30 -1 -5 -5 -10 -11 -9
-27 3 -31 5 -25 14 3 6 -1 10 -9 10 -25 0 -19 19 8 26 18 4 23 11 18 22 -5 15
-4 15 12 0 9 -10 25 -19 34 -19z m1065 11 c-3 -11 -9 -17 -15 -14 -5 3 -4 12
3 20 16 19 18 18 12 -6z m-956 -82 c-3 -8 -6 -5 -6 6 -1 11 2 17 5 13 3 -3 4
-12 1 -19z m898 12 c3 -5 -1 -10 -10 -10 -9 0 -13 5 -10 10 3 6 8 10 10 10 2
0 7 -4 10 -10z m-778 -25 c1 -11 -1 -14 -4 -7 -3 6 -16 12 -29 12 -14 0 -22
-4 -19 -10 7 -11 -23 -9 -43 3 -23 15 -3 25 46 24 41 -2 48 -5 49 -22z m-382
-25 c-10 -11 -22 -17 -27 -14 -4 3 2 14 14 24 29 23 37 17 13 -10z m1150 0 c3
-5 1 -10 -4 -10 -6 0 -11 5 -11 10 0 6 2 10 4 10 3 0 8 -4 11 -10z m72 4 c-3
-3 -12 -4 -19 -1 -8 3 -5 6 6 6 11 1 17 -2 13 -5z m-927 -25 c0 -6 -4 -7 -10
-4 -5 3 -10 11 -10 16 0 6 5 7 10 4 6 -3 10 -11 10 -16z m513 -10 c-9 -9 -12
-7 -10 9 1 14 5 18 11 12 7 -7 6 -14 -1 -21z m41 -15 c3 -15 11 -19 40 -18 20
1 36 -2 36 -6 0 -15 -30 -32 -45 -26 -9 3 -13 2 -10 -4 3 -6 -1 -10 -9 -10 -9
0 -15 5 -13 12 1 7 -9 13 -25 13 -34 1 -46 12 -23 21 10 4 21 1 27 -7 7 -10 8
-2 4 25 -4 27 -2 36 5 29 6 -6 12 -19 13 -29z m377 8 c-14 -27 -37 -34 -52
-16 -10 13 -10 17 2 24 8 6 15 6 17 0 2 -6 11 -3 19 6 20 19 28 12 14 -14z
m-211 8 c0 -5 -4 -10 -10 -10 -5 0 -10 5 -10 10 0 6 5 10 10 10 6 0 10 -4 10
-10z m-38 -22 c-7 -7 -12 -8 -12 -2 0 14 12 26 19 19 2 -3 -1 -11 -7 -17z
m182 -26 c12 -23 12 -31 0 -52 -7 -14 -13 -19 -14 -12 0 7 -4 10 -10 7 -5 -3
-10 -1 -10 4 0 6 7 11 16 11 8 0 12 5 9 10 -4 6 -11 7 -17 4 -6 -4 -8 -2 -4 4
3 6 -3 17 -15 25 -15 11 -17 16 -7 20 27 11 38 6 52 -21z m-958 -7 c14 -13 30
-22 35 -19 5 3 9 0 9 -5 0 -6 -7 -11 -15 -11 -21 0 -19 -27 3 -39 13 -7 23 -6
32 2 10 10 12 8 7 -10 -3 -13 -2 -23 3 -23 14 0 20 -44 7 -52 -7 -5 -31 -7
-54 -6 -23 1 -45 -1 -49 -5 -11 -11 -26 -8 -19 3 3 5 0 7 -8 4 -22 -8 -30 12
-12 30 14 14 13 16 -9 22 -28 7 -57 34 -37 34 7 0 9 5 6 10 -3 6 -2 10 4 10 5
0 11 -6 13 -12 3 -9 9 -8 21 4 15 15 16 18 1 32 -13 14 -13 16 -1 16 18 0 29
-24 21 -45 -4 -8 -2 -15 4 -15 6 0 8 -9 5 -20 -4 -15 -2 -19 10 -15 15 6 19
65 5 65 -16 0 -8 19 10 23 13 4 11 5 -5 6 -13 0 -23 6 -23 11 0 6 -8 10 -17
11 -15 0 -15 2 2 9 11 5 21 9 22 9 1 1 14 -10 29 -24z m-86 -7 c0 -18 -2 -20
-9 -8 -6 8 -7 18 -5 22 9 14 14 9 14 -14z m560 8 c0 -8 -4 -18 -10 -21 -5 -3
-10 3 -10 14 0 12 5 21 10 21 6 0 10 -6 10 -14z m544 -37 l31 -19 -31 0 c-18
0 -31 5 -31 13 0 6 -3 19 -5 27 -3 8 -3 11 0 7 2 -5 18 -17 36 -28z m-115 -4
c6 3 11 1 11 -4 0 -20 -29 -11 -40 12 -10 21 -10 21 4 3 8 -10 19 -15 25 -11z
m-114 -35 c9 -14 -24 -25 -37 -12 -6 6 -16 8 -23 6 -7 -3 -16 -1 -20 5 -4 7 8
11 34 11 22 0 43 -5 46 -10z m75 0 c0 -5 -7 -10 -16 -10 -8 0 -12 5 -9 10 3 6
10 10 16 10 5 0 9 -4 9 -10z m220 -10 c14 -11 19 -20 13 -20 -16 0 -17 -47 -1
-52 6 -2 8 -10 4 -16 -11 -18 -22 -14 -23 10 -1 11 -7 24 -14 28 -6 4 -9 12
-6 17 3 5 -1 10 -9 10 -10 0 -13 -6 -8 -16 18 -47 18 -47 1 -29 -9 9 -17 21
-17 27 0 6 -4 11 -10 11 -5 0 -9 -3 -8 -7 3 -16 -15 -43 -28 -43 -8 0 -14 -4
-14 -10 0 -5 5 -10 10 -10 6 0 10 -10 10 -22 0 -29 11 -16 19 22 6 30 26 43
26 18 0 -7 8 -20 17 -28 21 -18 14 -32 -26 -51 -30 -15 -36 -31 -15 -38 6 -2
9 1 5 7 -8 14 25 25 38 12 12 -12 -8 -30 -36 -30 -19 0 -33 -34 -21 -52 4 -7
8 -19 9 -26 2 -13 -29 -34 -49 -31 -6 1 -23 1 -37 0 -19 -1 -21 -4 -11 -10 8
-5 20 -7 28 -4 7 3 13 0 13 -6 0 -6 -11 -11 -24 -11 -14 0 -32 -7 -40 -16 -9
-8 -16 -14 -16 -11 0 10 32 67 41 72 5 4 7 11 4 16 -5 7 18 13 45 11 3 0 6 11
6 24 1 13 -2 21 -7 18 -5 -3 -9 0 -9 6 0 7 8 9 20 5 11 -4 20 -2 20 4 0 17
-47 13 -54 -4 -3 -8 -1 -15 5 -15 13 0 7 -21 -6 -22 -6 0 -19 -5 -29 -10 -14
-8 -21 -6 -28 6 -5 9 -13 16 -17 16 -13 0 -8 -29 6 -34 18 -7 16 -33 -4 -44
-10 -6 -14 -16 -10 -26 4 -10 1 -16 -8 -16 -20 0 -19 -16 1 -24 13 -5 14 -9 4
-21 -18 -22 -35 -18 -48 10 -15 33 -15 33 5 31 10 0 19 8 21 19 2 11 9 23 14
26 17 11 -2 30 -22 24 -22 -7 -35 21 -14 29 10 4 13 2 8 -7 -5 -8 -2 -8 9 2 9
7 14 17 11 22 -3 5 0 9 6 9 7 0 10 7 6 15 -4 12 3 15 33 15 l39 0 7 50 c6 46
14 55 39 51 5 -1 4 4 -2 12 -7 8 -9 17 -5 20 3 4 0 14 -8 23 -12 15 -14 14
-19 -2 -7 -20 -47 -26 -54 -8 -7 17 5 26 19 14 9 -7 16 -6 25 5 15 18 50 20
50 3 0 -6 2 -9 5 -7 2 3 2 15 -2 27 -4 16 -11 21 -29 18 -18 -4 -21 -1 -17 12
4 10 8 11 11 4 2 -8 8 -8 23 1 17 10 22 9 33 -5 11 -15 13 -15 24 3 15 24 40
24 72 -1z m-600 -41 c0 -5 -7 -9 -15 -9 -9 0 -12 6 -9 15 6 15 24 11 24 -6z
m-126 -22 c-5 -15 -8 -15 -21 -2 -8 8 -22 16 -31 16 -9 1 -3 5 13 8 35 9 48 1
39 -22z m346 23 c0 -6 10 -14 22 -19 l22 -8 -22 -18 c-12 -11 -17 -22 -12 -25
5 -3 -6 -6 -25 -6 -20 0 -37 6 -40 14 -2 7 -1 11 4 8 5 -3 11 1 15 9 3 8 16
15 28 15 21 1 22 2 6 14 -20 15 -23 26 -8 26 6 0 10 -5 10 -10z m-288 -14 c10
-7 15 -16 12 -19 -7 -7 -44 14 -44 25 0 12 13 9 32 -6z m-568 -12 c10 -26 7
-31 -19 -36 -29 -6 -28 -7 -15 26 11 29 25 34 34 10z m53 0 c-3 -3 -12 -4 -19
-1 -8 3 -5 6 6 6 11 1 17 -2 13 -5z m488 -13 c3 -5 1 -12 -5 -16 -5 -3 -10 1
-10 9 0 18 6 21 15 7z m82 -13 c2 -18 0 -20 -7 -8 -12 18 -13 30 -2 30 4 0 9
-10 9 -22z m383 -10 c0 -5 -4 -6 -10 -3 -5 3 -10 -1 -10 -9 0 -16 -12 -21 -23
-9 -4 3 -1 13 6 21 10 13 9 14 -8 4 -17 -9 -21 -7 -21 7 0 15 5 16 33 8 18 -6
33 -14 33 -19z m-930 18 c0 -11 -19 -15 -25 -6 -3 5 1 10 9 10 9 0 16 -2 16
-4z m66 -28 c4 -6 -2 -8 -15 -3 -11 3 -21 2 -21 -3 0 -6 -10 -8 -21 -5 -20 6
-21 7 -5 18 18 14 52 9 62 -7z m71 16 c-3 -3 -12 -4 -19 -1 -8 3 -5 6 6 6 11
1 17 -2 13 -5z m393 -9 c0 -8 -7 -15 -15 -15 -16 0 -20 12 -8 23 11 12 23 8
23 -8z m170 5 c0 -5 -5 -10 -11 -10 -5 0 -7 5 -4 10 3 6 8 10 11 10 2 0 4 -4
4 -10z m-430 -28 c0 -9 -6 -12 -16 -8 -9 3 -18 6 -20 6 -3 0 -3 4 0 8 9 14 36
10 36 -6z m460 -14 c0 -4 -6 -5 -14 -2 -8 3 -12 12 -9 21 5 12 7 12 14 1 5 -7
9 -16 9 -20z m258 4 c2 -12 -2 -29 -8 -39 -10 -16 -11 -16 -7 4 4 19 1 21 -31
18 -33 -2 -34 -1 -16 11 10 7 24 18 29 23 15 15 30 7 33 -17z m-788 -6 c0 -14
-45 -28 -55 -18 -4 4 27 23 53 31 1 1 2 -5 2 -13z m578 -4 c6 -18 -15 -14 -22
4 -4 10 -1 14 6 12 6 -2 14 -10 16 -16z m39 -29 c-3 -10 -5 -4 -5 12 0 17 2
24 5 18 2 -7 2 -21 0 -30z m26 2 c-7 -21 -13 -19 -13 6 0 11 4 18 10 14 5 -3
7 -12 3 -20z m312 -3 c-3 -3 -11 0 -18 7 -9 10 -8 11 6 5 10 -3 15 -9 12 -12z
m-1035 -2 c0 -5 -4 -10 -10 -10 -5 0 -10 5 -10 10 0 6 5 10 10 10 6 0 10 -4
10 -10z m672 -41 c-19 -7 -27 4 -18 28 6 14 8 14 21 -3 12 -17 11 -20 -3 -25z
m-57 21 c8 -13 -5 -13 -25 0 -13 8 -13 10 2 10 9 0 20 -4 23 -10z m-50 -20
c-3 -5 -11 -10 -16 -10 -6 0 -7 5 -4 10 3 6 11 10 16 10 6 0 7 -4 4 -10z m165
0 c0 -5 -2 -10 -4 -10 -3 0 -8 5 -11 10 -3 6 -1 10 4 10 6 0 11 -4 11 -10z
m-440 -22 c0 -19 -2 -20 -10 -8 -13 19 -13 30 0 30 6 0 10 -10 10 -22z m-300
8 c0 -3 -4 -8 -10 -11 -5 -3 -10 -1 -10 4 0 6 5 11 10 11 6 0 10 -2 10 -4z
m555 -23 c-13 -34 -14 -54 -2 -52 24 3 37 -1 37 -12 0 -5 -5 -7 -12 -3 -7 5
-9 2 -5 -9 4 -11 -4 -9 -31 9 -31 22 -38 23 -40 10 -2 -9 -8 -16 -14 -16 -5 0
-7 8 -4 17 4 9 1 20 -6 25 -9 7 -4 8 15 5 15 -2 26 -2 23 0 -6 6 26 43 37 43
5 0 6 -8 2 -17z m120 7 c3 -5 -1 -10 -9 -10 -9 0 -16 5 -16 10 0 6 4 10 9 10
6 0 13 -4 16 -10z m350 -8 c-3 -3 -11 0 -18 7 -9 10 -8 11 6 5 10 -3 15 -9 12
-12z m-285 -24 c0 -4 -6 -5 -14 -2 -8 3 -12 12 -9 21 5 12 7 12 14 1 5 -7 9
-16 9 -20z m-465 12 c-3 -5 -16 -10 -28 -10 -18 0 -19 2 -7 10 20 13 43 13 35
0z m128 -15 c-3 -9 -8 -14 -10 -11 -3 3 -2 9 2 15 9 16 15 13 8 -4z m281 -10
c-4 -8 -10 -15 -16 -15 -5 0 -6 -4 -3 -10 3 -5 -1 -10 -9 -10 -22 0 -20 8 7
31 27 23 28 23 21 4z m-484 -5 c0 -5 -2 -10 -4 -10 -3 0 -8 5 -11 10 -3 6 -1
10 4 10 6 0 11 -4 11 -10z m-25 -20 c11 -9 11 -16 -2 -41 -15 -30 -16 -30 -32
-12 -10 10 -23 31 -29 46 -12 28 -12 28 18 23 17 -2 37 -9 45 -16z m232 4 c-3
-3 -12 -4 -19 -1 -8 3 -5 6 6 6 11 1 17 -2 13 -5z m254 -51 c-12 -20 -14 -14
-5 12 4 9 9 14 11 11 3 -2 0 -13 -6 -23z m-31 -3 c0 -5 -2 -10 -4 -10 -3 0 -8
5 -11 10 -3 6 -1 10 4 10 6 0 11 -4 11 -10z m264 -25 c3 -9 0 -15 -8 -15 -8 0
-16 7 -20 15 -3 9 0 15 8 15 8 0 16 -7 20 -15z m-137 -19 c2 -2 0 -7 -6 -11
-6 -3 -11 -1 -11 4 0 12 -27 10 -47 -2 -13 -8 -19 14 -7 25 5 6 62 -7 71 -16z
m93 14 c0 -5 -5 -10 -11 -10 -5 0 -7 5 -4 10 3 6 8 10 11 10 2 0 4 -4 4 -10z
m-13 -45 c0 -8 -4 -15 -8 -15 -4 0 -15 -3 -24 -7 -15 -5 -16 -3 -6 15 13 25
38 29 38 7z m-143 -39 c-2 -18 11 -22 21 -6 3 6 12 10 18 10 15 -1 -23 -30
-39 -30 -6 0 -14 11 -17 25 -3 17 0 24 7 22 6 -2 10 -12 10 -21z m-780 -71 c3
-9 0 -15 -9 -15 -9 0 -12 6 -9 15 4 8 7 15 9 15 2 0 5 -7 9 -15z"/>
<path d="M5856 5867 c3 -10 9 -15 12 -12 3 3 0 11 -7 18 -10 9 -11 8 -5 -6z"/>
<path d="M6840 5920 c-9 -6 -10 -10 -3 -10 6 0 15 5 18 10 8 12 4 12 -15 0z"/>
<path d="M6826 5799 c3 -5 0 -9 -5 -9 -6 0 -11 -4 -11 -10 0 -14 19 -12 35 4
12 12 11 15 -5 19 -11 3 -18 1 -14 -4z"/>
<path d="M6954 7301 c3 -5 -4 -21 -16 -36 l-21 -27 22 13 c18 12 23 12 31 -1
9 -13 11 -13 20 0 15 22 12 30 -10 30 -13 0 -18 5 -14 15 4 8 1 15 -6 15 -6 0
-9 -4 -6 -9z"/>
<path d="M7260 7300 c-20 -12 -5 -24 16 -12 9 5 12 12 7 15 -5 3 -15 2 -23 -3z"/>
<path d="M5816 7291 c-4 -7 -5 -15 -2 -18 9 -9 19 4 14 18 -4 11 -6 11 -12 0z"/>
<path d="M7415 7292 c6 -5 21 -13 35 -17 17 -5 22 -4 15 3 -5 5 -21 13 -35 17
-17 5 -22 4 -15 -3z"/>
<path d="M6140 7282 c0 -5 11 -12 25 -14 14 -3 25 -1 25 3 0 5 -4 9 -9 9 -5 0
-16 3 -25 6 -9 3 -16 2 -16 -4z"/>
<path d="M6481 7274 c0 -11 3 -14 6 -6 3 7 2 16 -1 19 -3 4 -6 -2 -5 -13z"/>
<path d="M6867 7279 c7 -7 15 -10 18 -7 3 3 -2 9 -12 12 -14 6 -15 5 -6 -5z"/>
<path d="M6110 7269 c0 -5 5 -7 10 -4 6 3 10 8 10 11 0 2 -4 4 -10 4 -5 0 -10
-5 -10 -11z"/>
<path d="M6797 7259 c4 -13 8 -18 11 -10 2 7 -1 18 -6 23 -8 8 -9 4 -5 -13z"/>
<path d="M7307 7273 c-18 -5 -18 -5 0 -19 24 -18 28 -17 30 6 2 21 1 21 -30
13z"/>
<path d="M5884 7259 c-3 -5 6 -13 20 -18 20 -8 24 -15 21 -43 -2 -18 -1 -25 1
-15 6 18 21 21 48 11 11 -4 13 -11 6 -23 -7 -14 1 -26 36 -58 25 -22 47 -36
50 -32 2 4 -6 15 -18 23 -12 9 -18 16 -13 16 6 0 5 4 -2 8 -16 10 20 72 42 72
18 0 19 14 5 41 -10 18 -12 18 -50 -6 -33 -21 -39 -22 -42 -8 -3 18 -95 46
-104 32z m97 -46 c12 -15 12 -16 -4 -10 -10 4 -23 7 -28 7 -5 0 -9 5 -9 10 0
16 26 12 41 -7z m63 -8 c4 -11 -1 -15 -19 -15 -24 0 -32 10 -18 23 11 12 31 8
37 -8z m-14 -34 c0 -5 -7 -14 -15 -21 -13 -10 -15 -9 -15 9 0 12 6 21 15 21 8
0 15 -4 15 -9z"/>
<path d="M6630 7261 c0 -6 -5 -10 -12 -8 -7 1 -17 -8 -23 -20 -10 -23 -25 -31
-25 -14 0 5 -8 12 -17 15 -15 6 -15 5 1 -13 10 -11 27 -23 37 -26 10 -3 16
-12 13 -20 -3 -7 -1 -16 5 -20 19 -11 12 -23 -11 -17 -14 3 -19 2 -14 -6 4 -7
13 -12 21 -12 8 0 11 -7 8 -20 -3 -11 -9 -20 -14 -20 -5 0 -9 -11 -9 -25 0
-18 5 -25 20 -25 15 0 18 6 15 28 -2 16 1 35 6 43 6 9 8 -6 6 -43 -4 -50 -2
-57 17 -62 31 -8 48 -7 41 3 -3 5 3 12 12 14 13 3 11 5 -7 7 -14 1 -31 2 -37
1 -9 -1 -13 14 -13 48 0 27 -4 53 -10 56 -15 10 -12 35 5 35 8 0 15 9 15 20 0
11 7 23 15 26 8 4 12 11 9 16 -4 6 -9 6 -14 -2 -6 -9 -16 -10 -36 -3 -28 10
-28 10 -6 17 23 8 29 21 12 31 -5 3 -10 1 -10 -4z"/>
<path d="M5632 7230 c0 -19 2 -27 5 -17 2 9 2 25 0 35 -3 9 -5 1 -5 -18z"/>
<path d="M6770 7243 c-18 -21 -25 -83 -10 -83 5 0 10 5 10 10 0 6 11 8 25 6
17 -3 25 0 25 10 0 8 -4 14 -10 14 -5 0 -10 -5 -10 -12 0 -6 -3 -8 -7 -4 -4 4
-6 23 -4 42 3 39 1 41 -19 17z"/>
<path d="M6842 7240 c0 -14 2 -19 5 -12 2 6 2 18 0 25 -3 6 -5 1 -5 -13z"/>
<path d="M5287 7220 c-3 -11 -1 -20 4 -20 5 0 9 9 9 20 0 11 -2 20 -4 20 -2 0
-6 -9 -9 -20z"/>
<path d="M6112 7223 c2 -9 8 -18 15 -20 7 -3 9 3 6 16 -6 25 -26 28 -21 4z"/>
<path d="M6165 7219 c-4 -12 -3 -25 2 -29 4 -5 8 4 9 21 1 34 -2 37 -11 8z"/>
<path d="M7203 7216 c0 -17 -12 -39 -32 -60 -17 -17 -31 -37 -31 -44 0 -13
-16 -16 -23 -4 -5 9 -1 -9 8 -29 4 -12 -3 -19 -27 -27 -24 -8 -26 -10 -7 -7
29 5 42 -6 54 -44 9 -28 86 -140 97 -141 5 0 -7 21 -25 48 -50 72 -81 162 -56
162 12 0 12 2 0 9 -14 9 -7 53 8 48 4 -1 21 14 37 33 16 19 22 30 14 25 -12
-7 -13 -6 -3 6 10 13 10 19 -1 34 -13 18 -13 17 -13 -9z"/>
<path d="M7387 7220 c3 -11 9 -22 13 -25 5 -3 6 4 3 15 -3 11 -9 22 -13 25 -5
3 -6 -4 -3 -15z"/>
<path d="M5764 7194 c-5 -20 -1 -29 17 -42 13 -9 31 -18 41 -19 17 -3 15 15
-7 70 -11 26 -44 21 -51 -9z"/>
<path d="M5830 7208 c0 -5 11 -8 25 -8 14 0 25 3 25 8 0 4 -11 7 -25 7 -14 0
-25 -3 -25 -7z"/>
<path d="M7431 7184 c11 -20 16 -33 12 -31 -5 2 -17 1 -28 -3 l-20 -8 20 -7
c11 -4 34 -24 51 -43 21 -24 31 -30 31 -19 0 9 -4 14 -8 12 -4 -3 -15 7 -24
21 -12 19 -14 29 -6 33 14 9 -12 66 -34 75 -10 4 -9 -4 6 -30z"/>
<path d="M7313 7180 c-6 -17 -7 -27 -2 -24 6 3 8 -6 4 -23 l-5 -28 14 30 c16
33 21 75 8 75 -4 0 -13 -14 -19 -30z"/>
<path d="M6885 7184 l-30 -13 35 2 c33 2 35 0 32 -27 -3 -18 0 -26 7 -22 7 4
11 -1 11 -14 0 -18 -3 -19 -22 -9 -32 17 -49 42 -35 51 6 4 -3 6 -21 6 -29 -1
-37 -8 -33 -32 1 -5 -5 -6 -14 -3 -8 4 -15 2 -15 -4 0 -6 10 -10 23 -9 39 4
58 0 53 -9 -4 -5 3 -7 14 -4 11 3 20 0 20 -6 0 -6 6 -11 14 -11 8 0 16 -5 18
-11 2 -5 11 -7 20 -4 10 4 15 13 11 23 -4 15 -3 15 6 2 9 -13 12 -13 20 -1 6
10 2 20 -13 35 -13 12 -22 31 -21 44 1 20 -2 23 -21 19 -13 -2 -25 -1 -26 3
-2 4 -16 1 -33 -6z"/>
<path d="M6267 7170 c3 -11 9 -17 15 -14 5 3 4 12 -3 20 -16 19 -18 18 -12 -6z"/>
<path d="M7150 7174 c-23 -13 -24 -14 -4 -14 12 0 27 7 34 15 15 18 4 18 -30
-1z"/>
<path d="M5292 7155 c0 -16 2 -22 5 -12 2 9 2 23 0 30 -3 6 -5 -1 -5 -18z"/>
<path d="M5359 7178 c-6 -22 -5 -38 3 -38 6 0 8 6 5 14 -3 8 -1 17 6 20 9 3 9
5 0 5 -7 1 -13 0 -14 -1z"/>
<path d="M5424 7172 c-22 -2 -34 -10 -37 -23 -7 -25 10 -35 18 -10 4 13 17 21
38 23 18 2 28 5 22 8 -5 3 -24 4 -41 2z"/>
<path d="M6145 7170 c-4 -6 -10 -8 -15 -5 -4 3 -6 -5 -3 -16 6 -21 7 -21 20
-4 13 19 17 35 9 35 -3 0 -8 -5 -11 -10z"/>
<path d="M6378 7162 c-20 -4 -22 -11 -10 -30 10 -15 38 -7 46 13 5 15 -11 23
-36 17z"/>
<path d="M5420 7141 c0 -5 5 -13 10 -16 6 -3 10 -2 10 4 0 5 -4 13 -10 16 -5
3 -10 2 -10 -4z"/>
<path d="M7070 7140 c0 -5 -7 -10 -15 -10 -8 0 -15 -7 -15 -17 0 -15 1 -15 18
0 10 10 24 17 31 17 7 0 9 5 6 10 -3 6 -10 10 -16 10 -5 0 -9 -4 -9 -10z"/>
<path d="M7276 7125 c4 -8 11 -15 16 -15 6 0 5 6 -2 15 -7 8 -14 15 -16 15 -2
0 -1 -7 2 -15z"/>
<path d="M6664 7119 c-3 -6 -1 -16 5 -22 8 -8 11 -5 11 11 0 24 -5 28 -16 11z"/>
<path d="M5290 7106 c0 -9 5 -16 10 -16 6 0 10 4 10 9 0 6 -4 13 -10 16 -5 3
-10 -1 -10 -9z"/>
<path d="M5468 7114 c-3 -5 5 -20 18 -34 13 -13 24 -20 24 -13 0 17 -36 57
-42 47z"/>
<path d="M5967 7106 c-4 -10 -1 -13 8 -9 8 3 12 9 9 14 -7 12 -11 11 -17 -5z"/>
<path d="M6080 7110 c-9 -6 -10 -10 -3 -10 6 0 15 5 18 10 8 12 4 12 -15 0z"/>
<path d="M6290 7110 c-8 -5 -11 -10 -6 -10 5 0 4 -6 -2 -12 -7 -9 -6 -16 2
-24 9 -8 15 -5 23 13 7 14 7 23 1 23 -5 0 -6 5 -3 10 8 12 4 12 -15 0z"/>
<path d="M5872 7085 c-7 -15 -8 -25 -2 -25 6 0 10 7 10 16 0 8 4 12 10 9 6 -3
7 1 4 9 -8 21 -9 20 -22 -9z"/>
<path d="M6245 7100 c-3 -6 1 -7 9 -4 18 7 21 14 7 14 -6 0 -13 -4 -16 -10z"/>
<path d="M5663 7093 c9 -2 23 -2 30 0 6 3 -1 5 -18 5 -16 0 -22 -2 -12 -5z"/>
<path d="M6715 7090 c3 -5 11 -10 16 -10 6 0 7 5 4 10 -3 6 -11 10 -16 10 -6
0 -7 -4 -4 -10z"/>
<path d="M6076 7055 c-10 -14 -16 -29 -13 -31 7 -8 39 35 35 47 -2 7 -12 0
-22 -16z"/>
<path d="M6844 7073 c4 -6 0 -13 -6 -16 -10 -4 -11 -7 0 -18 20 -21 35 3 16
27 -8 10 -13 14 -10 7z"/>
<path d="M5451 7054 c0 -11 3 -14 6 -6 3 7 2 16 -1 19 -3 4 -6 -2 -5 -13z"/>
<path d="M7035 7060 c-3 -5 1 -10 10 -10 9 0 13 5 10 10 -3 6 -8 10 -10 10 -2
0 -7 -4 -10 -10z"/>
<path d="M5300 7041 c0 -12 5 -21 10 -21 6 0 10 6 10 14 0 8 -4 18 -10 21 -5
3 -10 -3 -10 -14z"/>
<path d="M7275 7049 c-11 -17 1 -21 15 -4 8 9 8 15 2 15 -6 0 -14 -5 -17 -11z"/>
<path d="M5756 7038 c-18 -10 -18 -11 5 -24 34 -19 56 -17 62 5 3 11 2 22 -1
25 -9 10 -46 6 -66 -6z"/>
<path d="M6305 7040 c-3 -6 1 -7 9 -4 18 7 21 14 7 14 -6 0 -13 -4 -16 -10z"/>
<path d="M6345 7040 c3 -5 8 -10 11 -10 2 0 4 5 4 10 0 6 -5 10 -11 10 -5 0
-7 -4 -4 -10z"/>
<path d="M7510 7047 c0 -2 15 -16 33 -33 l32 -29 -29 33 c-28 30 -36 37 -36
29z"/>
<path d="M5680 7021 c-6 -13 -21 -21 -38 -22 -18 -1 -21 -3 -9 -6 13 -3 16
-10 11 -25 -4 -14 -2 -18 5 -14 6 4 11 14 11 22 0 8 6 14 14 14 8 0 18 9 21
21 9 28 -1 35 -15 10z"/>
<path d="M6946 7024 c-10 -26 -7 -34 12 -34 10 0 24 -6 31 -12 11 -11 12 -9 7
9 -5 16 -2 23 11 26 16 4 16 5 1 6 -9 0 -20 -3 -23 -9 -3 -5 -13 -10 -21 -10
-11 0 -13 6 -9 20 7 24 0 27 -9 4z"/>
<path d="M7487 7008 c9 -21 21 -38 25 -38 10 0 -2 25 -26 55 -14 17 -14 14 1
-17z"/>
<path d="M5430 7022 c0 -6 -10 -21 -22 -33 l-23 -21 23 11 c24 13 39 38 28 48
-3 4 -6 1 -6 -5z"/>
<path d="M5240 6970 c-7 -28 -10 -53 -7 -56 3 -3 10 18 16 47 15 68 7 75 -9 9z"/>
<path d="M5530 7007 c0 -9 5 -17 10 -17 6 0 10 -9 10 -19 0 -29 15 -33 41 -11
22 18 22 19 5 20 -11 0 -30 10 -43 22 -20 18 -23 19 -23 5z"/>
<path d="M6360 7000 c-14 -11 -20 -20 -13 -20 6 0 19 7 27 16 9 8 16 11 16 5
0 -6 5 -11 11 -11 13 0 7 22 -7 27 -5 1 -20 -6 -34 -17z"/>
<path d="M5302 6992 c-11 -19 -10 -23 5 -29 10 -4 20 -10 23 -14 3 -4 12 -4
19 0 11 7 9 10 -7 15 -11 4 -22 17 -24 29 l-3 22 -13 -23z"/>
<path d="M6090 7000 c-9 -6 -10 -10 -3 -10 6 0 15 5 18 10 8 12 4 12 -15 0z"/>
<path d="M7053 6979 c9 -12 24 -24 32 -25 13 -2 14 0 4 12 -7 8 -21 20 -32 26
-19 10 -19 9 -4 -13z"/>
<path d="M7310 6990 c-9 -6 -10 -10 -3 -10 6 0 15 5 18 10 8 12 4 12 -15 0z"/>
<path d="M6707 6983 c-11 -10 -8 -20 7 -26 8 -3 16 2 19 14 5 18 -12 27 -26
12z"/>
<path d="M7343 6958 c-1 -11 -14 -34 -29 -49 -15 -16 -25 -32 -21 -35 9 -10
69 54 62 66 -3 5 -4 10 -1 10 3 0 13 -12 21 -27 9 -16 14 -20 11 -10 -3 10 -6
28 -6 39 0 12 -3 18 -7 15 -3 -4 -11 -3 -17 3 -8 6 -12 2 -13 -12z"/>
<path d="M7590 6957 c0 -3 6 -12 13 -19 7 -7 20 -24 29 -37 l17 -24 -1 32 c-1
18 -6 30 -12 28 -6 -3 -19 2 -28 11 -10 8 -18 12 -18 9z"/>
<path d="M6676 6935 c-3 -8 -1 -15 3 -15 5 0 11 7 15 15 3 8 1 15 -3 15 -5 0
-11 -7 -15 -15z"/>
<path d="M7513 6918 c3 -29 36 -105 37 -85 0 4 9 3 19 -3 13 -7 22 -7 26 0 3
5 -3 10 -14 10 -29 0 -51 27 -51 65 0 19 -5 37 -10 40 -7 4 -9 -5 -7 -27z"/>
<path d="M5169 6913 c19 -4 21 -7 10 -14 -11 -7 -9 -9 9 -9 12 0 22 -4 22 -10
0 -5 6 -10 13 -10 6 0 32 -18 57 -40 25 -22 55 -43 68 -46 25 -7 28 -23 10
-44 -11 -12 -10 -12 5 0 16 12 20 12 27 -1 8 -12 12 -11 23 5 9 13 21 17 35
14 12 -3 29 1 39 9 10 8 12 12 6 8 -9 -4 -13 2 -13 17 0 30 -18 48 -44 47 -12
0 -16 -3 -10 -5 16 -7 -13 -64 -31 -64 -8 0 -24 13 -36 29 -12 16 -43 41 -70
56 -27 14 -47 31 -44 36 4 5 -5 9 -19 9 -14 0 -26 5 -26 10 0 6 -12 9 -27 9
-26 -2 -27 -2 -4 -6z"/>
<path d="M5475 6908 c-20 -12 -46 -41 -41 -46 2 -1 18 11 36 28 35 33 36 36 5
18z"/>
<path d="M7156 6903 c-6 -14 -5 -15 5 -6 7 7 10 15 7 18 -3 3 -9 -2 -12 -12z"/>
<path d="M5358 6893 c7 -3 16 -2 19 1 4 3 -2 6 -13 5 -11 0 -14 -3 -6 -6z"/>
<path d="M7130 6860 c0 -16 4 -30 8 -30 5 0 7 14 4 30 -2 17 -6 30 -8 30 -2 0
-4 -13 -4 -30z"/>
<path d="M7565 6880 c3 -5 15 -10 26 -10 10 0 19 5 19 10 0 6 -12 10 -26 10
-14 0 -23 -4 -19 -10z"/>
<path d="M5484 6860 c0 -11 5 -19 11 -17 5 2 10 10 10 17 0 7 -5 15 -10 17 -6
2 -11 -6 -11 -17z"/>
<path d="M5527 6856 c-3 -8 1 -17 10 -20 20 -8 25 -3 17 18 -8 20 -20 21 -27
2z"/>
<path d="M5573 6845 c-9 -25 4 -29 17 -6 7 15 7 21 0 21 -6 0 -13 -7 -17 -15z"/>
<path d="M5216 6830 c3 -14 11 -32 16 -40 6 -10 7 -7 2 10 -3 14 -11 32 -16
40 -6 10 -7 7 -2 -10z"/>
<path d="M7025 6829 c-11 -17 0 -20 21 -4 17 13 17 14 2 15 -9 0 -20 -5 -23
-11z"/>
<path d="M7295 6829 c29 -17 29 -17 15 -34 -7 -8 -17 -12 -24 -8 -6 4 -4 -1 3
-11 14 -17 16 -17 28 0 7 9 14 21 16 27 1 5 17 3 35 -7 18 -9 30 -21 27 -26
-10 -17 19 -10 45 10 21 16 23 21 11 32 -11 10 -14 10 -18 1 -6 -17 -32 -16
-74 1 -19 7 -45 17 -59 20 -23 6 -23 6 -5 -5z"/>
<path d="M7515 6810 c-3 -5 1 -10 10 -10 9 0 13 5 10 10 -3 6 -8 10 -10 10 -2
0 -7 -4 -10 -10z"/>
<path d="M5490 6803 c0 -2 13 -9 29 -14 20 -7 28 -15 24 -25 -6 -16 13 -19 23
-3 3 6 16 8 28 5 19 -5 19 -4 -4 14 -14 10 -26 17 -28 15 -2 -1 -19 1 -38 5
-18 4 -34 6 -34 3z"/>
<path d="M7140 6797 c0 -2 9 -14 20 -27 16 -18 17 -25 8 -32 -10 -6 -9 -8 3
-8 11 0 18 11 21 30 4 23 2 27 -9 19 -9 -8 -14 -7 -19 5 -5 13 -24 23 -24 13z"/>
<path d="M7560 6786 c0 -8 5 -18 11 -21 6 -4 8 -14 5 -22 -3 -8 -1 -11 4 -8 6
3 10 1 10 -4 0 -6 5 -11 10 -11 15 0 12 33 -6 58 -17 25 -34 29 -34 8z"/>
<path d="M7025 6770 c-3 -5 -1 -10 4 -10 6 0 11 5 11 10 0 6 -2 10 -4 10 -3 0
-8 -4 -11 -10z"/>
<path d="M7210 6770 c0 -5 5 -10 11 -10 5 0 7 5 4 10 -3 6 -8 10 -11 10 -2 0
-4 -4 -4 -10z"/>
<path d="M5255 6742 c13 -26 14 -36 4 -48 -21 -26 26 -43 49 -17 10 10 10 13
-2 13 -8 0 -17 8 -20 18 -4 9 -16 28 -27 42 l-20 25 16 -33z m25 -52 c0 -5 -5
-10 -11 -10 -5 0 -7 5 -4 10 3 6 8 10 11 10 2 0 4 -4 4 -10z"/>
<path d="M5670 6766 c0 -2 7 -7 16 -10 8 -3 12 -2 9 4 -6 10 -25 14 -25 6z"/>
<path d="M7365 6747 c-4 -10 -17 -17 -29 -16 -44 3 -51 0 -30 -15 12 -9 21
-11 25 -4 11 18 32 3 46 -33 l13 -34 -3 32 c-3 29 -1 32 27 36 l31 4 -32 1
c-24 2 -33 7 -36 25 -3 20 -4 20 -12 4z"/>
<path d="M7546 6752 c-2 -4 -1 -14 5 -22 7 -12 9 -10 9 8 0 23 -5 28 -14 14z"/>
<path d="M5511 6728 c7 -16 18 -28 24 -28 7 0 19 -9 26 -20 8 -10 28 -22 44
-25 29 -5 29 -5 5 5 -18 8 -21 13 -11 19 8 6 9 11 3 15 -6 3 -14 1 -17 -5 -5
-7 -22 3 -47 28 -36 35 -39 36 -27 11z"/>
<path d="M6945 6740 c3 -5 8 -10 11 -10 2 0 4 5 4 10 0 6 -5 10 -11 10 -5 0
-7 -4 -4 -10z"/>
<path d="M7220 6746 c0 -2 7 -6 15 -10 8 -3 15 -1 15 4 0 6 -7 10 -15 10 -8 0
-15 -2 -15 -4z"/>
<path d="M7455 6720 c-4 -6 3 -10 14 -10 25 0 27 6 6 13 -8 4 -17 2 -20 -3z"/>
<path d="M6959 6702 c6 -11 20 -22 31 -25 26 -7 26 -5 -11 22 -28 21 -30 21
-20 3z"/>
<path d="M7145 6713 c-22 -6 -45 -23 -29 -23 5 0 24 4 41 9 20 6 35 6 38 0 4
-5 14 -8 23 -8 15 1 15 2 -1 6 -9 2 -15 9 -12 14 6 9 -25 10 -60 2z"/>
<path d="M7508 6713 c7 -3 16 -2 19 1 4 3 -2 6 -13 5 -11 0 -14 -3 -6 -6z"/>
<path d="M7470 6682 c0 -4 14 -13 31 -19 23 -9 29 -9 26 0 -2 7 -9 12 -14 12
-6 0 -15 3 -19 8 -10 9 -24 9 -24 -1z"/>
<path d="M7627 6683 c-10 -9 -9 -23 2 -23 5 0 11 7 15 15 5 15 -5 20 -17 8z"/>
<path d="M5150 6661 c0 -5 9 -11 19 -14 14 -3 18 -1 14 9 -6 15 -33 19 -33 5z"/>
<path d="M5525 6660 c3 -5 8 -10 11 -10 2 0 4 5 4 10 0 6 -5 10 -11 10 -5 0
-7 -4 -4 -10z"/>
<path d="M5375 6650 c-3 -5 -1 -10 4 -10 6 0 11 5 11 10 0 6 -2 10 -4 10 -3 0
-8 -4 -11 -10z"/>
<path d="M5432 6648 c2 -6 10 -14 16 -16 7 -2 10 2 6 12 -7 18 -28 22 -22 4z"/>
<path d="M7010 6644 c0 -8 5 -12 10 -9 6 4 8 11 5 16 -9 14 -15 11 -15 -7z"/>
<path d="M7065 6639 c-4 -6 -5 -12 -2 -15 2 -3 7 2 10 11 7 17 1 20 -8 4z"/>
<path d="M7431 6625 c-27 -16 -52 -23 -65 -20 -21 6 -21 6 -2 -9 25 -20 70
-22 63 -3 -3 7 4 19 14 25 28 18 25 -6 -6 -38 -23 -24 -23 -26 -5 -26 10 0 17
2 15 5 -3 2 0 10 6 17 8 10 31 74 26 74 -1 0 -22 -12 -46 -25z"/>
<path d="M5510 6611 c0 -6 5 -13 10 -16 6 -3 10 1 10 9 0 9 -4 16 -10 16 -5 0
-10 -4 -10 -9z"/>
<path d="M7213 6605 c-10 -10 -8 -19 8 -39 11 -14 17 -26 12 -26 -5 0 -7 -17
-4 -37 l5 -38 6 30 c4 24 10 29 27 27 12 -2 24 2 28 8 4 6 -4 10 -18 10 -32 0
-61 33 -52 59 7 24 5 26 -12 6z"/>
<path d="M7035 6580 c9 -17 20 -28 26 -24 6 4 2 15 -12 30 -30 32 -33 30 -14
-6z"/>
<path d="M5323 6583 c9 -2 23 -2 30 0 6 3 -1 5 -18 5 -16 0 -22 -2 -12 -5z"/>
<path d="M7585 6580 c3 -5 8 -10 11 -10 2 0 4 5 4 10 0 6 -5 10 -11 10 -5 0
-7 -4 -4 -10z"/>
<path d="M5432 6571 c-8 -4 -13 -11 -13 -15 3 -20 -2 -27 -29 -41 -16 -8 -38
-15 -50 -15 -12 0 -19 -4 -16 -9 3 -5 16 -7 28 -3 l22 5 -21 -29 c-12 -16 -31
-39 -42 -51 -26 -27 -26 -32 -2 -30 11 0 17 5 14 10 -4 7 39 67 94 126 18 20
25 22 36 12 10 -8 17 -9 22 -1 3 5 1 10 -4 10 -6 0 -11 9 -11 20 0 22 -7 25
-28 11z"/>
<path d="M7084 6560 c0 -11 3 -20 7 -20 10 0 19 27 12 34 -12 11 -19 6 -19
-14z"/>
<path d="M5300 6540 c0 -5 5 -10 11 -10 5 0 7 5 4 10 -3 6 -8 10 -11 10 -2 0
-4 -4 -4 -10z"/>
<path d="M7516 6529 c8 -9 13 -18 12 -20 -2 -2 3 2 10 10 17 21 15 26 -12 26
-22 0 -23 -2 -10 -16z"/>
<path d="M7360 6515 c0 -8 2 -15 4 -15 2 0 11 -3 20 -6 23 -9 20 13 -4 26 -16
9 -20 8 -20 -5z"/>
<path d="M7420 6520 c-13 -8 -12 -10 3 -10 9 0 17 5 17 10 0 12 -1 12 -20 0z"/>
<path d="M5500 6510 c8 -5 22 -10 30 -10 13 0 13 1 0 10 -8 5 -22 10 -30 10
-13 0 -13 -1 0 -10z"/>
<path d="M7108 6513 c7 -3 16 -2 19 1 4 3 -2 6 -13 5 -11 0 -14 -3 -6 -6z"/>
<path d="M7194 6488 l-19 -23 23 19 c21 18 27 26 19 26 -2 0 -12 -10 -23 -22z"/>
<path d="M7322 6485 c-14 -29 2 -34 18 -6 12 24 13 31 2 31 -5 0 -14 -11 -20
-25z"/>
<path d="M5267 6479 c12 -12 25 -20 28 -17 3 3 -7 13 -22 23 l-28 17 22 -23z"/>
<path d="M7386 6464 c-4 -9 -4 -19 -1 -22 3 -3 5 -2 5 2 0 4 9 2 21 -4 30 -17
33 -7 5 19 -21 20 -24 20 -30 5z"/>
<path d="M7123 6439 c-18 -12 -30 -25 -27 -30 8 -13 -10 -11 -24 3 -9 9 -12 9
-12 0 0 -7 5 -12 11 -12 5 0 7 -5 3 -11 -12 -20 29 8 60 40 35 36 33 38 -11
10z"/>
<path d="M5424 6434 c3 -8 -1 -29 -9 -45 -15 -29 -13 -49 5 -49 5 0 11 14 15
30 6 26 9 29 21 19 8 -6 18 -8 22 -4 4 4 1 10 -6 12 -7 3 -17 16 -22 29 -5 13
-15 24 -21 24 -6 0 -8 -7 -5 -16z"/>
<path d="M7355 6430 c-3 -5 -1 -10 4 -10 6 0 11 5 11 10 0 6 -2 10 -4 10 -3 0
-8 -4 -11 -10z"/>
<path d="M7310 6397 c0 -7 9 -13 20 -14 11 -1 20 0 20 2 0 2 -9 9 -20 15 -15
8 -20 8 -20 -3z"/>
<path d="M7214 6389 c-4 -7 -3 -14 3 -16 6 -2 9 -12 6 -21 -2 -10 0 -28 6 -42
9 -22 10 -20 10 20 1 51 -11 80 -25 59z"/>
<path d="M7360 6391 c0 -6 4 -13 10 -16 6 -3 7 1 4 9 -7 18 -14 21 -14 7z"/>
<path d="M7116 6379 c2 -4 1 -9 -3 -12 -5 -2 -2 -2 5 -1 19 5 14 -34 -5 -45
-16 -9 -14 -10 8 -11 28 0 27 0 20 71 -1 3 -8 6 -16 6 -8 0 -12 -4 -9 -8z"/>
<path d="M5342 6358 c6 -30 -9 -39 -19 -12 -5 13 -7 13 -14 2 -5 -7 -8 -22 -8
-33 0 -17 1 -17 7 -3 6 15 9 15 27 2 11 -8 19 -18 17 -21 -3 -9 59 -9 65 -1 2
5 14 9 26 9 17 1 18 2 5 6 -10 2 -18 9 -18 15 0 5 -7 8 -15 4 -8 -3 -15 -1
-15 4 0 5 -7 7 -15 4 -9 -4 -15 0 -15 9 0 8 -7 21 -17 28 -15 13 -16 11 -11
-13z"/>
<path d="M7171 6344 c0 -11 3 -14 6 -6 3 7 2 16 -1 19 -3 4 -6 -2 -5 -13z"/>
<path d="M7402 6347 c7 -8 22 -14 32 -14 18 0 18 1 0 14 -10 7 -24 13 -32 13
-11 0 -11 -2 0 -13z"/>
<path d="M7274 6318 c8 -40 13 -45 29 -28 9 10 9 11 0 6 -9 -5 -13 2 -13 23 0
17 -5 31 -11 31 -8 0 -9 -11 -5 -32z"/>
<path d="M7628 6326 c-10 -7 -18 -19 -18 -25 0 -7 -5 -9 -12 -5 -7 4 -8 3 -4
-4 10 -17 12 -16 36 18 24 33 23 36 -2 16z"/>
<path d="M5182 6308 c2 -6 10 -13 16 -14 7 -1 8 0 2 3 -5 2 -8 9 -4 14 3 5 0
9 -6 9 -7 0 -10 -5 -8 -12z"/>
<path d="M7370 6310 c0 -5 5 -10 11 -10 5 0 7 5 4 10 -3 6 -8 10 -11 10 -2 0
-4 -4 -4 -10z"/>
<path d="M7641 6294 c0 -11 3 -14 6 -6 3 7 2 16 -1 19 -3 4 -6 -2 -5 -13z"/>
<path d="M7110 6280 c-10 -19 2 -55 24 -71 5 -4 6 -16 3 -28 -6 -25 3 -33 23
-20 13 8 13 10 0 19 -12 8 -11 10 6 10 11 0 24 3 28 7 7 8 11 8 56 12 24 2 24
2 5 13 -24 14 -35 29 -29 40 3 4 -2 8 -10 8 -8 0 -20 8 -26 18 -8 14 -9 12 -4
-10 8 -36 -12 -37 -28 -3 -14 30 -33 32 -48 5z"/>
<path d="M5277 6254 c-4 -24 10 -54 27 -54 2 0 15 15 27 33 20 28 21 30 3 15
-27 -24 -36 -23 -32 4 4 31 -19 33 -25 2z"/>
<path d="M5150 6244 c0 -14 4 -23 9 -20 5 3 7 15 4 26 -7 28 -13 25 -13 -6z"/>
<path d="M5430 6260 c0 -13 18 -22 24 -11 3 5 -1 11 -9 15 -8 3 -15 1 -15 -4z"/>
<path d="M7355 6260 c-30 -6 -29 -6 10 -12 46 -6 51 -5 33 9 -7 5 -26 7 -43 3z"/>
<path d="M7350 6229 c0 -3 10 -9 23 -13 30 -8 37 -7 37 3 0 5 -13 11 -30 13
-16 3 -30 1 -30 -3z"/>
<path d="M5360 6190 c-13 -8 -12 -10 3 -10 9 0 17 5 17 10 0 12 -1 12 -20 0z"/>
<path d="M5573 6171 c9 -12 9 -13 0 -7 -9 5 -13 0 -13 -13 0 -12 -5 -21 -12
-21 -6 0 -9 -2 -7 -5 8 -8 49 7 43 16 -3 5 3 9 13 10 10 0 13 3 6 6 -7 2 -13
10 -13 17 0 7 -7 13 -15 13 -12 0 -12 -3 -2 -16z"/>
<path d="M5217 6160 c3 -11 10 -23 16 -27 7 -4 8 0 4 11 -4 10 -7 22 -7 27 0
5 -4 9 -9 9 -5 0 -7 -9 -4 -20z"/>
<path d="M7530 6175 c0 -15 34 -64 49 -69 9 -3 22 -9 28 -12 10 -4 10 2 2 25
-6 17 -18 31 -26 31 -8 0 -11 5 -8 10 3 6 2 10 -4 10 -5 0 -16 3 -25 6 -9 3
-16 3 -16 -1z"/>
<path d="M7210 6162 c0 -7 85 -42 103 -42 4 0 -2 9 -13 20 -11 11 -26 17 -35
14 -8 -4 -15 -1 -15 5 0 6 -9 11 -20 11 -11 0 -20 -4 -20 -8z"/>
<path d="M5449 6142 c-14 -6 -15 -9 -3 -19 8 -8 15 -9 19 -3 4 6 15 6 31 0 35
-14 38 -13 20 6 -9 8 -20 12 -26 9 -5 -3 -10 -1 -10 4 0 12 -7 13 -31 3z"/>
<path d="M5242 6093 c14 -34 29 -55 35 -49 6 6 -30 76 -39 76 -4 0 -2 -12 4
-27z"/>
<path d="M7340 6100 c0 -5 5 -10 10 -10 6 0 10 5 10 10 0 6 -4 10 -10 10 -5 0
-10 -4 -10 -10z"/>
<path d="M6892 6088 c5 -15 48 -24 48 -10 0 10 -23 22 -42 22 -5 0 -8 -6 -6
-12z"/>
<path d="M5490 6074 c0 -8 5 -12 10 -9 6 3 10 10 10 16 0 5 -4 9 -10 9 -5 0
-10 -7 -10 -16z"/>
<path d="M5520 6068 c0 -19 2 -20 10 -8 13 19 13 30 0 30 -5 0 -10 -10 -10
-22z"/>
<path d="M7122 6059 c-1 -15 -5 -42 -8 -60 -4 -28 -3 -31 6 -16 6 9 9 36 7 60
-2 23 -4 30 -5 16z"/>
<path d="M7430 6051 c0 -5 5 -13 10 -16 6 -3 10 -2 10 4 0 5 -4 13 -10 16 -5
3 -10 2 -10 -4z"/>
<path d="M5424 6013 c8 -17 27 -40 41 -51 14 -11 25 -26 25 -33 1 -8 8 0 16
16 8 17 12 22 9 13 -2 -10 0 -18 5 -18 6 0 10 9 10 19 0 19 -18 31 -48 31 -9
0 -29 12 -45 28 l-29 27 16 -32z"/>
<path d="M7615 6030 c-3 -5 -1 -10 4 -10 6 0 11 5 11 10 0 6 -2 10 -4 10 -3 0
-8 -4 -11 -10z"/>
<path d="M5253 6007 c4 -10 -1 -18 -11 -21 -11 -3 -9 -4 5 -3 12 1 29 -7 38
-18 16 -20 16 -19 5 3 -7 15 -7 22 0 22 5 0 10 -5 10 -12 0 -6 3 -9 6 -5 3 3
1 14 -5 24 -6 10 -11 14 -11 10 0 -4 -10 -3 -22 4 -18 10 -20 9 -15 -4z"/>
<path d="M7040 6006 c0 -8 -3 -22 -6 -30 -6 -14 -3 -14 24 1 23 13 28 21 20
30 -14 17 -38 16 -38 -1z"/>
<path d="M5324 5995 c1 -8 12 -24 23 -35 18 -16 22 -17 27 -4 3 9 1 12 -4 9
-6 -3 -10 3 -10 13 0 11 -7 23 -16 26 -22 8 -23 8 -20 -9z"/>
<path d="M7558 5983 c6 -2 18 -2 25 0 6 3 1 5 -13 5 -14 0 -19 -2 -12 -5z"/>
<path d="M7090 5938 c-35 -18 -35 -18 -5 -12 30 6 53 20 44 27 -2 2 -20 -5
-39 -15z"/>
<path d="M7370 5949 c-12 -8 -9 -9 10 -4 20 6 23 5 13 -6 -7 -7 -13 -17 -13
-23 0 -5 6 -2 13 9 8 10 19 15 25 11 7 -4 12 -2 12 3 0 6 -4 11 -9 11 -5 0
-15 2 -23 5 -7 3 -20 0 -28 -6z"/>
<path d="M7545 5917 c15 -26 32 -50 38 -54 7 -4 4 5 -6 21 -18 27 -18 28 5 54
22 26 22 26 1 8 -22 -19 -24 -19 -43 -1 -18 16 -17 12 5 -28z"/>
<path d="M5230 5940 c0 -5 15 -10 33 -9 27 0 29 2 12 9 -28 12 -45 12 -45 0z"/>
<path d="M7290 5923 c-29 -11 -40 -43 -15 -43 8 0 14 4 13 9 -2 5 6 17 17 25
20 15 13 19 -15 9z"/>
<path d="M5417 5913 c-4 -3 -7 -11 -7 -17 0 -6 4 -5 9 3 8 12 13 12 35 -2 35
-23 44 -21 13 3 -26 21 -39 24 -50 13z"/>
<path d="M7440 5910 c20 -13 33 -13 25 0 -3 6 -14 10 -23 10 -15 0 -15 -2 -2
-10z"/>
<path d="M7490 5905 c-11 -13 -10 -14 4 -9 9 3 16 10 16 15 0 13 -6 11 -20 -6z"/>
<path d="M7153 5903 c9 -2 23 -2 30 0 6 3 -1 5 -18 5 -16 0 -22 -2 -12 -5z"/>
<path d="M6957 5894 c-8 -8 1 -24 14 -24 5 0 9 7 9 15 0 15 -12 20 -23 9z"/>
<path d="M7500 5865 c-19 -19 -28 -35 -21 -35 14 0 32 19 52 53 15 25 7 21
-31 -18z"/>
<path d="M5180 5881 c0 -8 -8 -20 -17 -27 -10 -7 -13 -14 -7 -14 22 0 44 25
34 40 -8 12 -10 12 -10 1z"/>
<path d="M7403 5842 c-2 -33 0 -43 7 -32 12 18 13 67 2 74 -4 2 -8 -17 -9 -42z"/>
<path d="M5504 5850 c0 -9 11 -25 24 -34 23 -18 24 -18 14 0 -5 11 -7 24 -5
30 2 6 -4 14 -14 16 -13 3 -19 0 -19 -12z"/>
<path d="M5437 5845 c3 -8 9 -12 14 -9 12 7 11 11 -5 17 -10 4 -13 1 -9 -8z"/>
<path d="M7125 5850 c-12 -4 -15 -9 -8 -13 14 -9 83 -4 77 4 -6 11 -49 16 -69
9z"/>
<path d="M7068 5843 c6 -2 18 -2 25 0 6 3 1 5 -13 5 -14 0 -19 -2 -12 -5z"/>
<path d="M7247 5839 c-9 -5 -22 -7 -27 -4 -6 3 -10 1 -10 -4 0 -16 46 -13 60
4 14 17 3 19 -23 4z"/>
<path d="M7313 5844 c4 -4 -3 -23 -15 -43 -21 -35 -21 -35 -1 -18 20 17 21 17
25 -7 3 -15 -1 -31 -11 -40 -9 -9 -11 -16 -4 -16 6 0 14 6 16 13 4 9 8 8 17
-3 10 -12 10 -11 4 5 -5 11 -8 39 -8 62 0 29 -5 44 -15 48 -9 3 -12 3 -8 -1z"/>
<path d="M5266 5828 c3 -4 9 -8 15 -8 5 0 9 4 9 8 0 5 -7 9 -15 9 -8 0 -12 -4
-9 -9z"/>
<path d="M5391 5824 c0 -11 3 -14 6 -6 3 7 2 16 -1 19 -3 4 -6 -2 -5 -13z"/>
<path d="M7016 5820 c6 -8 13 -22 16 -30 3 -10 6 -7 11 9 3 13 3 20 0 17 -4
-3 -13 0 -22 7 -14 10 -14 10 -5 -3z"/>
<path d="M7584 5815 c-24 -18 -7 -19 26 0 16 9 19 14 9 15 -8 0 -24 -7 -35
-15z"/>
<path d="M5346 5790 c14 -28 34 -48 34 -35 0 14 -31 65 -39 65 -5 0 -3 -13 5
-30z"/>
<path d="M7115 5794 c-54 -22 -56 -24 -22 -20 21 3 53 14 70 25 42 27 26 25
-48 -5z"/>
<path d="M5296 5773 c-6 -14 -5 -15 5 -6 7 7 10 15 7 18 -3 3 -9 -2 -12 -12z"/>
<path d="M5561 5781 c-9 -6 -10 -14 -5 -24 8 -13 11 -12 21 9 12 25 7 30 -16
15z"/>
<path d="M6990 5781 c0 -5 5 -13 10 -16 6 -3 10 -2 10 4 0 5 -4 13 -10 16 -5
3 -10 2 -10 -4z"/>
<path d="M5580 5759 c0 -5 5 -7 10 -4 6 3 10 1 10 -4 0 -6 11 -11 25 -11 14 0
25 -4 25 -10 0 -5 8 -10 18 -10 10 0 13 3 6 8 -6 4 -16 16 -22 27 -6 11 -12
14 -12 7 0 -9 -5 -10 -19 -2 -25 13 -41 13 -41 -1z"/>
<path d="M7252 5753 c-7 -2 -17 -14 -23 -24 -9 -18 -8 -19 10 -7 16 10 40 41
28 37 -1 0 -8 -3 -15 -6z"/>
<path d="M7519 5758 c-5 -21 -4 -48 3 -48 4 0 8 5 8 11 0 7 12 9 30 7 25 -4
28 -2 18 8 -13 11 -57 29 -59 22z"/>
<path d="M7096 5735 c-3 -9 -12 -12 -23 -8 -15 6 -16 4 -5 -9 14 -17 5 -28
-33 -43 -14 -5 -16 -9 -7 -12 7 -3 22 3 34 13 29 27 61 74 50 74 -6 0 -12 -7
-16 -15z"/>
<path d="M7192 5700 c0 -14 2 -19 5 -12 2 6 2 18 0 25 -3 6 -5 1 -5 -13z"/>
<path d="M7450 5709 c0 -21 16 -42 28 -38 6 2 2 14 -9 28 -11 13 -19 18 -19
10z"/>
<path d="M5660 5688 c-8 -13 -13 -29 -11 -36 2 -10 -4 -12 -21 -7 -23 7 -23 7
-3 -9 17 -13 18 -17 5 -26 -13 -8 -13 -10 2 -10 9 0 18 6 21 13 2 7 13 -3 25
-23 26 -41 28 -37 7 14 -8 20 -13 36 -10 36 3 0 1 9 -5 19 -7 14 -7 20 2 23 6
2 9 9 7 16 -2 7 -10 3 -19 -10z"/>
<path d="M7106 5701 c-6 -9 5 -20 34 -36 13 -8 13 -6 2 7 -14 17 0 34 18 23 6
-3 10 -1 10 4 0 13 -57 15 -64 2z"/>
<path d="M7393 5693 c4 -3 2 -12 -4 -19 -8 -9 -7 -18 1 -31 10 -17 11 -17 8 2
-2 11 6 28 17 37 20 17 20 17 -4 18 -13 0 -21 -3 -18 -7z"/>
<path d="M6947 5660 c-3 -13 -1 -18 6 -13 9 5 9 3 0 -8 -8 -10 -9 -20 -2 -29
13 -21 28 3 21 36 -6 32 -18 39 -25 14z"/>
<path d="M5558 5663 c7 -3 16 -2 19 1 4 3 -2 6 -13 5 -11 0 -14 -3 -6 -6z"/>
<path d="M6975 5600 c-18 -19 -35 -28 -45 -25 -12 5 -12 4 -3 -6 9 -9 8 -20
-7 -50 l-19 -37 25 3 c13 1 28 6 32 10 4 4 -3 4 -15 1 -28 -9 -28 -6 -3 37 16
26 26 33 47 32 22 -2 22 -1 4 2 l-23 5 23 24 c12 13 20 26 17 29 -2 3 -17 -9
-33 -25z"/>
<path d="M6138 5575 c19 -41 22 -83 7 -95 -8 -7 -15 -16 -15 -21 0 -4 14 5 31
21 19 17 28 33 24 40 -6 9 -10 9 -17 -1 -7 -10 -8 -9 -4 6 3 12 -3 30 -15 45
-15 18 -18 19 -11 5z"/>
<path d="M7505 5580 c-19 -8 -19 -9 2 -9 12 -1 25 4 28 9 7 12 -2 12 -30 0z"/>
<path d="M5368 5573 c7 -3 16 -2 19 1 4 3 -2 6 -13 5 -11 0 -14 -3 -6 -6z"/>
<path d="M5460 5571 c0 -6 5 -13 10 -16 6 -3 10 1 10 9 0 9 -4 16 -10 16 -5 0
-10 -4 -10 -9z"/>
<path d="M6855 5571 c-7 -13 14 -26 43 -26 l23 -1 -23 18 c-26 20 -34 22 -43
9z"/>
<path d="M7070 5560 c0 -5 5 -10 11 -10 5 0 7 5 4 10 -3 6 -8 10 -11 10 -2 0
-4 -4 -4 -10z"/>
<path d="M7308 5563 c7 -3 16 -2 19 1 4 3 -2 6 -13 5 -11 0 -14 -3 -6 -6z"/>
<path d="M5368 5542 c-7 -10 -24 -26 -38 -35 -13 -9 -20 -17 -14 -17 6 0 19 7
30 15 25 19 35 19 27 -1 -5 -14 -3 -14 15 -3 17 11 23 10 38 -2 16 -13 16 -12
6 8 -7 13 -8 24 -3 27 5 4 11 0 14 -6 2 -7 8 -10 12 -6 4 4 5 15 1 24 -6 15
-8 16 -24 0 -10 -9 -27 -16 -37 -16 -14 0 -15 3 -5 15 8 9 9 15 2 15 -6 0 -17
-8 -24 -18z"/>
<path d="M5740 5550 c-8 -5 -12 -11 -9 -14 3 -3 14 1 25 9 21 16 8 20 -16 5z"/>
<path d="M5847 5554 c-13 -13 -7 -24 14 -24 11 0 19 5 17 12 -5 14 -22 21 -31
12z"/>
<path d="M6822 5533 c2 -10 10 -18 18 -18 8 0 18 -8 22 -17 4 -10 12 -18 18
-18 24 0 7 36 -26 53 -34 17 -35 17 -32 0z"/>
<path d="M7103 5529 c-3 -12 -11 -18 -19 -15 -8 3 -21 -6 -30 -19 -18 -28 -34
-33 -34 -11 0 8 -8 13 -17 12 -9 0 -23 10 -30 24 -9 18 -13 20 -13 8 0 -10 8
-26 18 -36 10 -10 22 -26 25 -36 4 -9 11 -14 17 -11 6 3 7 -1 4 -10 -7 -18 24
-58 38 -49 4 3 22 -6 40 -21 41 -35 59 -19 28 25 -20 28 -21 36 -12 68 9 28 9
38 -1 45 -9 7 -9 10 1 14 15 6 16 33 1 33 -6 0 -13 -9 -16 -21z m2 -70 c-17
-32 -25 -35 -43 -17 -18 18 -14 38 7 38 11 0 23 5 26 10 15 24 24 -4 10 -31z"/>
<path d="M6245 5530 c-3 -5 -1 -10 4 -10 6 0 11 5 11 10 0 6 -2 10 -4 10 -3 0
-8 -4 -11 -10z"/>
<path d="M6080 5511 c0 -5 6 -11 13 -14 9 -3 9 -7 -2 -20 -12 -15 -11 -17 5
-17 14 0 19 8 20 30 1 23 -3 30 -17 30 -11 0 -19 -4 -19 -9z"/>
<path d="M5925 5500 c-18 -7 -18 -8 7 -15 29 -7 52 1 43 16 -7 11 -23 11 -50
-1z"/>
<path d="M6767 5484 c-8 -8 1 -24 14 -24 5 0 9 7 9 15 0 15 -12 20 -23 9z"/>
<path d="M7270 5470 c18 -12 30 -13 30 -2 0 4 -10 9 -22 9 -18 2 -20 0 -8 -7z"/>
<path d="M7356 5465 c-9 -9 -16 -23 -16 -31 0 -12 4 -13 21 -3 16 8 18 13 9
19 -10 6 -9 9 1 12 8 3 11 8 8 12 -4 4 -14 0 -23 -9z"/>
<path d="M6860 5460 c0 -5 7 -10 15 -10 8 0 15 5 15 10 0 6 -7 10 -15 10 -8 0
-15 -4 -15 -10z"/>
<path d="M5672 5444 c-7 -8 -8 -14 -3 -14 10 0 25 19 20 25 -2 1 -10 -3 -17
-11z"/>
<path d="M5509 5436 c8 -9 24 -22 35 -28 19 -10 20 -10 7 6 -8 9 -24 22 -35
28 -19 10 -20 10 -7 -6z"/>
<path d="M5630 5440 c0 -5 5 -10 10 -10 6 0 10 5 10 10 0 6 -4 10 -10 10 -5 0
-10 -4 -10 -10z"/>
<path d="M6787 5442 c-9 -2 -15 -7 -12 -12 3 -5 1 -11 -5 -15 -13 -8 -13 -25
1 -25 5 0 7 5 3 11 -5 9 4 10 31 5 26 -5 36 -4 33 4 -2 6 -8 11 -13 10 -5 -1
-12 5 -15 12 -3 8 -13 12 -23 10z"/>
<path d="M5659 5409 c-19 -11 1 -29 22 -20 13 5 14 8 4 18 -7 6 -18 8 -26 2z"/>
<path d="M5595 5380 c-4 -16 -11 -30 -17 -30 -6 0 -8 -3 -5 -6 3 -4 0 -16 -8
-28 -17 -24 -20 -40 -5 -31 23 14 69 125 51 125 -5 0 -12 -13 -16 -30z"/>
<path d="M6416 5389 c-11 -34 -15 -99 -7 -99 5 0 11 24 13 53 4 53 2 71 -6 46z"/>
<path d="M6855 5390 c3 -5 10 -10 16 -10 5 0 9 5 9 10 0 6 -7 10 -16 10 -8 0
-12 -4 -9 -10z"/>
<path d="M6900 5384 c0 -15 15 -28 63 -50 34 -16 67 -29 72 -29 16 -1 36 -16
31 -24 -3 -3 4 -7 15 -7 10 0 19 1 19 1 0 8 -107 77 -140 89 -25 10 -48 23
-52 29 -5 8 -8 4 -8 -9z"/>
<path d="M6001 5376 c-18 -22 -4 -40 16 -20 10 10 12 19 6 25 -6 6 -14 5 -22
-5z"/>
<path d="M6127 5383 c-4 -3 -7 -11 -7 -17 0 -6 5 -5 12 2 6 6 9 14 7 17 -3 3
-9 2 -12 -2z"/>
<path d="M6710 5355 c0 -8 -4 -15 -10 -15 -5 0 -10 -7 -10 -15 0 -21 25 -8 38
21 10 19 9 24 -3 24 -8 0 -15 -7 -15 -15z"/>
<path d="M7239 5343 c-13 -16 -12 -17 4 -4 9 7 17 15 17 17 0 8 -8 3 -21 -13z"/>
<path d="M6110 5335 c0 -8 5 -15 10 -15 6 0 10 7 10 15 0 8 -4 15 -10 15 -5 0
-10 -7 -10 -15z"/>
<path d="M6864 5334 c3 -9 6 -18 6 -20 0 -3 4 -3 10 1 11 7 2 35 -12 35 -6 0
-7 -7 -4 -16z"/>
<path d="M6196 5307 c-5 -16 -11 -25 -15 -20 -3 4 -10 8 -16 8 -5 0 -27 6 -48
14 -22 7 -50 10 -65 6 -24 -6 -19 -9 38 -24 94 -25 113 -37 105 -68 -4 -16 -2
-22 5 -18 5 3 10 13 10 21 0 8 8 14 18 14 16 1 16 2 0 13 -9 7 -18 29 -20 48
l-4 34 -8 -28z"/>
<path d="M6796 5304 c-5 -12 12 -34 27 -34 5 0 7 7 3 15 -3 8 2 19 12 24 14 9
12 10 -10 9 -15 -1 -30 -8 -32 -14z"/>
<path d="M6746 5287 c3 -10 9 -15 12 -12 3 3 0 11 -7 18 -10 9 -11 8 -5 -6z"/>
<path d="M5995 5280 c-3 -5 -2 -10 4 -10 5 0 13 5 16 10 3 6 2 10 -4 10 -5 0
-13 -4 -16 -10z"/>
<path d="M6985 5276 c20 -14 35 -12 35 5 0 5 -12 9 -27 9 -26 0 -26 -1 -8 -14z"/>
<path d="M5660 5240 c0 -11 7 -20 16 -20 8 0 12 5 8 11 -3 6 0 15 7 20 10 6 8
9 -8 9 -16 0 -23 -6 -23 -20z"/>
<path d="M7026 5245 c-9 -26 -7 -32 5 -12 6 10 9 21 6 23 -2 3 -7 -2 -11 -11z"/>
<path d="M5987 5218 c8 -44 17 -52 11 -11 -2 18 0 35 6 37 6 2 3 5 -6 5 -14 1
-16 -5 -11 -31z"/>
<path d="M6100 5225 c0 -6 56 -35 67 -35 4 0 -5 9 -22 20 -29 19 -45 25 -45
15z"/>
<path d="M6232 5189 c-13 -5 -29 -6 -35 -3 -8 5 -8 2 0 -6 11 -11 18 -11 45 2
36 18 28 23 -10 7z"/>
<path d="M6786 5185 c-11 -8 -15 -15 -9 -15 7 0 15 5 18 10 4 6 11 7 17 4 7
-4 8 -2 4 4 -9 14 -7 15 -30 -3z"/>
<path d="M6425 5180 c-3 -5 -1 -10 4 -10 6 0 11 5 11 10 0 6 -2 10 -4 10 -3 0
-8 -4 -11 -10z"/>
<path d="M5053 5005 c-105 -29 -207 -95 -273 -177 -22 -29 -39 -58 -38 -65 2
-8 15 -22 30 -31 26 -15 27 -15 60 17 18 19 60 46 93 62 49 24 73 29 133 29
40 0 87 -6 105 -14 30 -12 97 -77 97 -94 0 -4 -39 -21 -87 -36 -220 -71 -365
-171 -416 -285 -29 -66 -21 -174 19 -238 31 -50 104 -102 174 -125 61 -19 295
-22 398 -4 95 17 246 61 328 97 l47 21 -6 142 c-7 156 -20 229 -68 360 -60
168 -165 291 -284 335 -67 25 -229 28 -312 6z m263 -487 c8 -51 14 -153 14
-226 l0 -132 -27 -12 c-16 -6 -64 -13 -108 -15 l-80 -5 -43 168 c-23 93 -45
179 -48 192 -6 19 1 25 51 48 64 29 218 84 223 79 2 -2 10 -45 18 -97z m226
85 c26 -23 24 -78 -4 -97 -50 -35 -102 -10 -102 49 0 59 62 88 106 48z m27
-249 c23 -19 31 -34 31 -59 0 -25 -8 -40 -31 -59 -17 -14 -37 -26 -44 -26 -33
0 -66 22 -81 53 -14 30 -15 38 -3 63 14 29 51 54 81 54 9 0 30 -12 47 -26z"/>
<path d="M5976 4999 c-9 -30 -166 -1512 -161 -1518 5 -5 129 25 303 71 29 8
32 12 32 50 l0 40 -55 -7 -55 -6 0 30 c0 28 2 30 55 36 55 7 55 7 55 43 l0 35
-56 -6 -55 -6 3 32 c3 31 5 32 56 35 l52 3 0 40 0 39 -55 0 c-52 0 -55 2 -55
24 0 22 6 25 52 33 l52 8 -3 190 c-1 104 -5 193 -7 197 -10 15 16 177 37 233
28 75 114 165 175 183 62 18 172 15 219 -7 165 -75 214 -283 106 -453 -37 -59
-91 -88 -161 -88 -93 0 -158 48 -180 132 -15 54 3 128 40 168 23 25 36 30 73
30 37 0 49 -5 66 -26 12 -15 21 -33 21 -41 0 -29 -30 -71 -61 -83 -29 -13 -30
-14 -13 -27 10 -7 40 -13 67 -13 42 0 54 5 82 33 79 79 44 239 -62 283 -39 17
-142 18 -194 3 -54 -17 -105 -62 -137 -123 -24 -46 -27 -61 -27 -156 0 -89 3
-111 22 -145 27 -50 75 -96 133 -126 40 -22 58 -24 170 -24 125 0 125 0 190
36 231 127 291 490 116 704 -19 23 -63 57 -98 75 -58 32 -71 35 -168 38 -87 3
-115 0 -164 -17 -77 -27 -147 -73 -195 -127 l-38 -44 -7 38 c-3 20 -6 57 -6
82 0 81 -5 87 -72 94 -32 4 -66 10 -74 13 -7 3 -16 -1 -18 -8z"/>
<path d="M7186 4999 c-9 -30 -166 -1512 -161 -1518 5 -5 129 25 303 71 29 8
32 12 32 50 l0 40 -55 -7 -55 -6 0 30 c0 28 2 30 55 36 55 7 55 7 55 43 l0 35
-56 -6 -55 -6 3 32 c3 31 5 32 56 35 l52 3 0 40 0 39 -55 0 c-52 0 -55 2 -55
24 0 22 6 25 52 33 l52 8 -3 190 c-1 104 -5 193 -7 197 -10 15 16 177 37 233
28 75 114 165 175 183 62 18 172 15 219 -7 165 -75 214 -283 106 -453 -37 -59
-91 -88 -161 -88 -93 0 -158 48 -180 132 -15 54 3 128 40 168 23 25 36 30 73
30 37 0 49 -5 66 -26 12 -15 21 -33 21 -41 0 -29 -30 -71 -61 -83 -29 -13 -30
-14 -13 -27 10 -7 40 -13 67 -13 42 0 54 5 82 33 79 79 44 239 -62 283 -39 17
-142 18 -194 3 -54 -17 -105 -62 -137 -123 -24 -46 -27 -61 -27 -156 0 -89 3
-111 22 -145 27 -50 75 -96 133 -126 40 -22 58 -24 170 -24 125 0 125 0 190
36 231 127 291 490 116 704 -19 23 -63 57 -98 75 -58 32 -71 35 -168 38 -87 3
-115 0 -164 -17 -77 -27 -147 -73 -195 -127 l-38 -44 -7 38 c-3 20 -6 57 -6
82 0 81 -5 87 -72 94 -32 4 -66 10 -74 13 -7 3 -16 -1 -18 -8z"/>
</g>
</svg>
