<?xml version="1.0" standalone="no"?>
<!DOCTYPE svg PUBLIC "-//W3C//DTD SVG 20010904//EN"
 "http://www.w3.org/TR/2001/REC-SVG-20010904/DTD/svg10.dtd">
<svg version="1.0" xmlns="http://www.w3.org/2000/svg"
 width="300.000000pt" height="300.000000pt" viewBox="0 0 300.000000 300.000000"
 preserveAspectRatio="xMidYMid meet">
<metadata>
Created by potrace 1.10, written by Peter Selinger 2001-2011
</metadata>
<g transform="translate(0.000000,300.000000) scale(0.100000,-0.100000)"
fill="#000000" stroke="none">
<path d="M975 1725 l0 -525 525 0 525 0 0 525 0 525 -525 0 -525 0 0 -525z
m1035 0 l0 -515 -452 2 -453 3 423 2 c270 2 422 7 422 13 0 13 -887 14 -895 1
-3 -5 5 -12 17 -14 13 -2 -1 -5 -29 -6 l-53 -1 0 508 c0 280 3 512 7 515 4 4
233 7 510 7 l503 -1 0 -514z"/>
<path d="M1050 2220 c0 -6 169 -10 450 -10 289 0 450 4 450 10 0 6 -160 10
-450 9 -281 0 -450 -3 -450 -9z"/>
<path d="M1105 2132 c44 -45 84 -82 90 -82 5 0 21 9 35 20 40 31 49 23 10 -10
l-35 -29 55 -55 c30 -31 50 -56 44 -56 -5 0 -30 20 -54 45 -24 25 -49 45 -55
45 -11 0 -47 -43 -72 -85 -7 -11 -12 -15 -13 -10 0 6 16 34 36 64 l36 54 -82
81 c-45 44 -78 72 -72 61 6 -11 40 -48 76 -83 l65 -63 -34 -44 c-58 -77 -79
-146 -79 -260 1 -115 22 -185 81 -262 l35 -46 -84 -86 c-45 -47 -62 -66 -35
-41 26 24 47 40 47 34 0 -6 -13 -23 -30 -39 -16 -16 -27 -31 -25 -34 3 -3 39
28 79 68 l73 73 49 -35 c81 -58 162 -80 276 -75 87 4 106 9 171 41 40 20 81
45 90 55 16 18 20 15 102 -67 47 -47 85 -81 85 -75 0 5 -37 47 -83 92 -73 73
-85 81 -97 68 -7 -9 -17 -16 -23 -16 -5 0 -2 9 8 20 18 20 18 22 -35 75 -30
30 -50 55 -44 55 5 0 30 -20 54 -45 24 -25 49 -45 56 -45 16 0 38 28 69 88 15
29 30 51 32 48 6 -6 -52 -112 -75 -139 -15 -17 -10 -24 68 -102 46 -46 87 -82
92 -79 12 8 10 921 -2 929 -6 4 -26 -7 -46 -24 -19 -17 -38 -31 -42 -31 -4 0
2 8 13 18 11 9 29 28 40 42 10 14 -18 -11 -63 -55 -45 -44 -82 -82 -82 -84 0
-3 20 15 45 39 56 55 60 41 4 -16 l-42 -42 23 -32 c12 -17 20 -34 17 -36 -3
-3 -13 6 -22 20 -21 31 -36 33 -60 6 -10 -11 -23 -20 -28 -20 -6 0 1 13 16 28
25 26 26 29 11 50 -16 24 -7 30 15 10 11 -10 12 -10 7 -1 -4 7 -26 26 -50 42
-141 97 -360 95 -500 -6 l-49 -35 -66 64 c-99 97 -117 103 -26 10z m885 -411
l0 -459 -79 81 -80 80 26 31 c61 72 100 209 89 314 -8 77 -46 176 -86 223
l-29 34 77 78 c42 42 78 77 79 77 2 0 3 -207 3 -459z m-369 423 c57 -16 144
-62 136 -71 -3 -3 -25 7 -49 21 -106 62 -249 71 -369 22 -63 -25 -91 -28 -47
-5 88 47 230 62 329 33z m-39 -15 c59 -13 117 -39 166 -76 l34 -25 -51 -52
c-28 -28 -51 -57 -51 -64 0 -24 27 -11 75 38 45 45 50 48 66 34 9 -8 32 -45
50 -82 32 -64 34 -72 34 -177 0 -104 -2 -114 -32 -176 -18 -36 -41 -73 -52
-83 -18 -17 -21 -15 -67 33 -27 28 -54 51 -61 51 -28 0 -10 -40 37 -84 l49
-46 -46 -34 c-103 -75 -276 -94 -386 -43 -32 14 -72 36 -88 48 -17 12 -32 19
-35 16 -3 -3 7 -14 23 -25 140 -98 318 -108 461 -25 24 14 46 23 49 20 2 -3
-15 -16 -39 -30 -140 -81 -335 -74 -463 18 -28 19 -55 35 -61 35 -6 0 -21 -12
-35 -26 -13 -14 -33 -30 -44 -36 -15 -7 -13 -4 5 14 64 58 64 60 25 119 -19
29 -35 58 -35 64 0 5 14 -11 30 -37 26 -41 50 -68 50 -55 0 3 -16 28 -35 57
-50 74 -68 144 -63 243 5 93 32 174 76 226 l28 34 48 -51 c27 -29 55 -52 62
-52 29 0 12 40 -36 83 l-51 46 33 24 c100 74 214 100 330 76z m138 -194 c-13
-14 -26 -23 -28 -20 -3 3 5 16 18 30 13 14 26 23 28 20 3 -3 -5 -16 -18 -30z
m190 -62 c11 -30 20 -73 19 -96 -1 -38 -2 -36 -13 23 -7 36 -22 84 -34 107
-12 23 -22 46 -22 50 1 17 31 -34 50 -84z m-815 -23 c-20 -56 -20 -194 0 -250
8 -24 13 -45 11 -47 -10 -10 -26 39 -37 107 -11 73 -1 180 22 223 18 32 20 12
4 -33z m825 -240 c-10 -23 -10 -22 -5 9 3 18 6 52 7 75 2 38 2 37 5 -9 2 -28
-1 -62 -7 -75z"/>
<path d="M1430 1916 c-19 -7 -38 -14 -43 -14 -48 -6 -79 -17 -86 -31 -15 -27
-13 -244 1 -263 7 -9 42 -28 78 -43 128 -52 112 -51 213 -9 51 20 98 42 105
47 8 7 12 47 12 137 0 90 -4 130 -12 137 -15 12 -187 53 -215 52 -10 0 -34 -6
-53 -13z m168 -28 l92 -22 0 -125 0 -126 -95 -39 -95 -38 -95 38 -95 39 0 126
0 125 83 21 c106 27 97 27 205 1z"/>
<path d="M1435 1865 c-27 -7 -48 -14 -45 -14 3 -1 35 -10 71 -20 64 -18 69
-18 120 -1 l54 17 -35 9 c-19 4 -55 7 -80 7 -36 -1 -40 0 -20 7 41 13 -7 10
-65 -5z m40 -15 c-3 -5 -10 -10 -16 -10 -5 0 -9 5 -9 10 0 6 7 10 16 10 8 0
12 -4 9 -10z m40 -10 c-3 -5 -13 -10 -21 -10 -8 0 -12 5 -9 10 3 6 13 10 21
10 8 0 12 -4 9 -10z"/>
<path d="M1342 1733 l3 -97 78 -33 77 -32 0 108 0 108 -74 21 c-41 12 -77 22
-80 22 -4 0 -5 -44 -4 -97z m49 53 c-4 -6 -11 -18 -14 -26 -3 -9 -6 -5 -6 11
-1 16 4 26 14 26 9 0 11 -4 6 -11z m52 -86 c10 -44 22 -78 28 -75 5 4 9 1 9
-4 0 -20 -19 -11 -37 17 -25 38 -36 44 -50 25 -7 -9 -15 -15 -17 -12 -8 8 29
129 39 129 6 0 18 -36 28 -80z m36 1 l-1 -66 -13 60 c-18 78 -18 85 0 79 11
-5 15 -22 14 -73z m-112 7 c-3 -7 -5 -2 -5 12 0 14 2 19 5 13 2 -7 2 -19 0
-25z m53 -62 c0 -3 -4 -8 -10 -11 -5 -3 -10 -1 -10 4 0 6 5 11 10 11 6 0 10
-2 10 -4z"/>
<path d="M1408 1723 c-3 -13 -2 -26 4 -29 14 -9 16 -2 8 26 -6 25 -6 25 -12 3z"/>
<path d="M1250 1493 c-30 -32 -40 -45 -22 -28 17 16 32 24 32 18 0 -5 -9 -18
-20 -28 -11 -10 -18 -21 -15 -23 9 -10 95 81 95 100 0 29 -12 22 -70 -39z m50
22 c-7 -8 -17 -15 -22 -15 -11 0 14 29 26 30 5 0 3 -7 -4 -15z"/>
<path d="M1005 1725 c0 -253 1 -355 2 -227 2 128 2 335 0 460 -1 125 -2 20 -2
-233z"/>
<path d="M915 991 c-129 -75 -80 -272 69 -275 61 -1 96 25 96 72 l0 37 16 -30
c24 -47 44 -64 86 -75 51 -14 119 14 148 62 40 66 17 173 -46 210 -80 47 -185
-7 -200 -103 -6 -37 -7 -37 -29 -23 -20 13 -24 13 -36 -2 -14 -17 -15 -20 -17
-61 -2 -17 -7 -20 -24 -16 -56 14 -77 81 -42 131 14 20 24 23 67 21 39 -2 53
1 61 15 9 14 6 21 -13 37 -29 24 -95 24 -136 0z m122 -7 c12 -3 19 -12 17 -18
-3 -9 -20 -11 -54 -8 -42 4 -52 1 -74 -21 -20 -20 -26 -36 -26 -71 0 -59 31
-97 80 -99 34 -2 35 -1 38 41 3 34 7 42 23 42 16 0 19 -7 19 -50 0 -48 -1 -49
-37 -59 -87 -24 -163 32 -163 119 0 93 81 150 177 124z m241 -10 c32 -22 52
-67 52 -118 0 -84 -80 -143 -153 -112 -47 20 -69 49 -75 102 -6 55 17 107 57
129 35 19 92 19 119 -1z"/>
<path d="M1170 942 c-30 -24 -39 -102 -16 -136 35 -55 100 -55 125 0 43 96
-36 195 -109 136z m86 -26 c9 -15 14 -38 11 -58 -6 -55 -16 -68 -51 -68 -36 0
-56 28 -56 78 0 65 64 96 96 48z"/>
<path d="M1558 993 c-16 -20 -88 -219 -88 -246 0 -39 64 -33 74 8 5 21 12 25
41 25 27 0 36 -5 47 -27 15 -32 49 -41 68 -19 10 13 5 35 -30 131 -53 145 -75
170 -112 128z m81 -100 c19 -54 40 -110 48 -125 13 -27 12 -28 -10 -28 -20 0
-27 12 -57 101 l-34 102 -17 -49 c-23 -65 -23 -73 1 -67 19 5 50 -11 50 -26 0
-4 -18 -5 -40 -3 -37 4 -41 2 -51 -27 -7 -20 -18 -31 -30 -31 -17 0 -15 8 17
98 52 145 55 152 73 152 12 0 26 -27 50 -97z"/>
<path d="M1748 999 c-16 -9 -18 -26 -18 -132 0 -127 6 -147 42 -147 18 0 37
26 36 50 -2 39 3 48 36 54 68 13 110 92 74 138 -37 44 -125 64 -170 37z m136
-30 c32 -25 36 -77 7 -103 -21 -19 -91 -34 -91 -19 0 5 15 16 33 24 57 25 45
89 -17 89 l-31 0 3 -110 c3 -105 2 -110 -17 -110 -20 0 -21 5 -21 125 l0 125
54 0 c39 0 60 -6 80 -21z m-37 -45 c4 -10 -1 -22 -12 -30 -24 -18 -33 -10 -27
21 5 28 29 34 39 9z"/>
<path d="M1966 988 c-12 -17 -16 -48 -16 -126 0 -108 9 -142 38 -142 28 0 42
21 42 62 0 29 4 38 18 39 64 3 102 37 104 94 1 31 -4 43 -30 67 -27 23 -41 28
-87 28 -44 0 -57 -4 -69 -22z m127 -9 c78 -36 41 -139 -50 -139 -21 0 -24 2
-13 15 7 8 21 15 31 15 17 0 39 27 39 49 0 19 -32 41 -61 41 l-29 0 0 -110 c0
-103 -1 -110 -20 -110 -19 0 -20 7 -20 118 0 65 3 122 7 125 10 11 90 8 116
-4z m-27 -54 c6 -16 -12 -45 -27 -45 -5 0 -9 14 -9 30 0 32 26 43 36 15z"/>
</g>
</svg>
